<svg xmlns="http://www.w3.org/2000/svg" xmlns:xlink="http://www.w3.org/1999/xlink" width="130" height="39" viewBox="0 0 130 39">
  <defs>
    <clipPath id="clip-path">
      <rect width="130" height="39" fill="none"/>
    </clipPath>
  </defs>
  <g id="logo_appstore" clip-path="url(#clip-path)">
    <g id="logo_appstore-2" data-name="logo_appstore">
      <path id="Path_57" data-name="Path 57" d="M130,35.1a3.8,3.8,0,0,1-3.7,3.9H3.7A3.8,3.8,0,0,1,0,35.1V3.9A3.868,3.868,0,0,1,3.7,0H126.2a3.8,3.8,0,0,1,3.7,3.9l.1,31.2"/>
      <path id="Path_58" data-name="Path 58" d="M28.5,19.3a5.6,5.6,0,0,1,2.7-4.7,6.036,6.036,0,0,0-4.6-2.5c-1.9-.2-3.8,1.1-4.8,1.1s-2.5-1.1-4.1-1.1a5.941,5.941,0,0,0-5.1,3.1c-2.2,3.8-.6,9.5,1.6,12.6,1.1,1.5,2.3,3.2,3.9,3.2,1.6-.1,2.2-1,4.1-1s2.5,1,4.1,1c1.7,0,2.8-1.5,3.8-3.1a12.728,12.728,0,0,0,1.7-3.5,5.9,5.9,0,0,1-3.3-5.1" fill="#fff"/>
      <path id="Path_59" data-name="Path 59" d="M25.4,10a5.688,5.688,0,0,0,1.3-4A6.322,6.322,0,0,0,23,7.9a5.057,5.057,0,0,0-1.3,3.8A4.236,4.236,0,0,0,25.4,10" fill="#fff"/>
      <path id="Path_60" data-name="Path 60" d="M51.5,30.7H49.3l-1.2-3.8H43.9l-1.2,3.8H40.5l4.2-13h2.6Zm-3.8-5.4-1.1-3.4c-.1-.3-.3-1.2-.7-2.4h0a20.678,20.678,0,0,1-.6,2.4l-1.1,3.4Z" fill="#fff"/>
      <path id="Path_61" data-name="Path 61" d="M62.3,25.9A5.167,5.167,0,0,1,61,29.7a3.847,3.847,0,0,1-2.9,1.2,2.992,2.992,0,0,1-2.7-1.3v4.9H53.3v-10c0-1,0-2-.1-3.1H55l.1,1.5h0a3.5,3.5,0,0,1,3.2-1.7,3.545,3.545,0,0,1,2.8,1.3,4.871,4.871,0,0,1,1.2,3.4m-2.2.1a4.143,4.143,0,0,0-.6-2.3,2.271,2.271,0,0,0-1.8-.9,2.389,2.389,0,0,0-1.4.5,2.223,2.223,0,0,0-.8,1.3,1.759,1.759,0,0,0-.1.6v1.6a2.352,2.352,0,0,0,.6,1.7,1.99,1.99,0,0,0,1.6.7,2.019,2.019,0,0,0,1.8-.9,3.174,3.174,0,0,0,.7-2.3" fill="#fff"/>
      <path id="Path_62" data-name="Path 62" d="M73,25.9a5.167,5.167,0,0,1-1.3,3.8A3.721,3.721,0,0,1,68.9,31a2.992,2.992,0,0,1-2.7-1.3v4.9H64.1V24.5c0-1,0-2-.1-3.1h1.8l.1,1.5h0a3.5,3.5,0,0,1,3.2-1.7,3.545,3.545,0,0,1,2.8,1.3A4.813,4.813,0,0,1,73,25.9m-2.1.1a4.143,4.143,0,0,0-.6-2.3,2.138,2.138,0,0,0-1.8-.9,2.389,2.389,0,0,0-1.4.5,2.223,2.223,0,0,0-.8,1.3,1.759,1.759,0,0,0-.1.6v1.6a2.352,2.352,0,0,0,.6,1.7,1.99,1.99,0,0,0,1.6.7,2.019,2.019,0,0,0,1.8-.9,3.174,3.174,0,0,0,.7-2.3" fill="#fff"/>
      <path id="Path_63" data-name="Path 63" d="M85.1,27.1a3.424,3.424,0,0,1-1.2,2.7,4.761,4.761,0,0,1-3.5,1.1,6.835,6.835,0,0,1-3.4-.8l.5-1.7a6.109,6.109,0,0,0,3,.8,2.969,2.969,0,0,0,1.8-.5,1.833,1.833,0,0,0,.2-2.7,5.011,5.011,0,0,0-1.8-1c-2.3-.8-3.4-2.1-3.4-3.7a3.225,3.225,0,0,1,1.2-2.6,4.722,4.722,0,0,1,3.2-1,5.961,5.961,0,0,1,2.9.6L84.1,20a5.135,5.135,0,0,0-2.5-.6,2.86,2.86,0,0,0-1.7.5,1.656,1.656,0,0,0-.5,1.2,1.76,1.76,0,0,0,.6,1.3,7.759,7.759,0,0,0,1.9,1A8.3,8.3,0,0,1,84.4,25a3.1,3.1,0,0,1,.7,2.1" fill="#fff"/>
      <path id="Path_64" data-name="Path 64" d="M92,22.9H89.7v4.6c0,1.2.4,1.7,1.2,1.7a2.22,2.22,0,0,0,.9-.1l.1,1.6a3.9,3.9,0,0,1-1.6.2,2.407,2.407,0,0,1-1.9-.8,3.4,3.4,0,0,1-.7-2.5V22.9H86.3V21.3h1.4V19.6l2-.6v2.3H92Z" fill="#fff"/>
      <path id="Path_65" data-name="Path 65" d="M102.3,26a5.13,5.13,0,0,1-1.2,3.5,4.707,4.707,0,0,1-6.7,0A5.13,5.13,0,0,1,93.2,26a4.991,4.991,0,0,1,1.3-3.6A4.441,4.441,0,0,1,97.9,21a4.223,4.223,0,0,1,3.3,1.4,6.147,6.147,0,0,1,1.1,3.6m-2.1,0a3.8,3.8,0,0,0-.6-2.2,2.191,2.191,0,0,0-3.8,0,4.032,4.032,0,0,0-.6,2.2,3.8,3.8,0,0,0,.6,2.2,2.191,2.191,0,0,0,3.8,0,3.8,3.8,0,0,0,.6-2.2" fill="#fff"/>
      <path id="Path_66" data-name="Path 66" d="M109.1,23.2c-.2,0-.4-.1-.7-.1a2.136,2.136,0,0,0-1.7.8,3.557,3.557,0,0,0-.5,1.9v4.9h-2.1V24.3a25.322,25.322,0,0,0-.1-2.9h1.8l.1,1.8h.1a3.956,3.956,0,0,1,1-1.5,2.976,2.976,0,0,1,1.5-.5h.5Z" fill="#fff"/>
      <path id="Path_67" data-name="Path 67" d="M118.4,25.6a2.22,2.22,0,0,1-.1.9h-6.2a2.583,2.583,0,0,0,.9,2.1,3.221,3.221,0,0,0,2,.7,6.566,6.566,0,0,0,2.5-.4l.3,1.4a7.455,7.455,0,0,1-3.1.6,4.237,4.237,0,0,1-3.4-1.3,4.871,4.871,0,0,1-1.2-3.4,5.13,5.13,0,0,1,1.2-3.5,4,4,0,0,1,3.3-1.5,3.5,3.5,0,0,1,3.1,1.5,6.2,6.2,0,0,1,.7,2.9m-2-.5a2.934,2.934,0,0,0-.4-1.6,1.852,1.852,0,0,0-1.7-.9,2.289,2.289,0,0,0-1.7.8A3.139,3.139,0,0,0,112,25h4.4Z" fill="#fff"/>
      <path id="Path_68" data-name="Path 68" d="M46.7,13.1H45.6L45,11.2H43l-.6,1.9H41.3l2.1-6.4h1.3Zm-1.8-2.7-.5-1.7a4.986,4.986,0,0,1-.3-1.2h0a10.378,10.378,0,0,0-.3,1.2l-.5,1.7Z" fill="#fff"/>
      <path id="Path_69" data-name="Path 69" d="M51.9,8.5l-1.7,4.6h-1L47.5,8.5h1.1l.8,2.4.3,1.2h0a10.378,10.378,0,0,0,.3-1.2l.8-2.4Z" fill="#fff"/>
      <path id="Path_70" data-name="Path 70" d="M56.5,13.1h-.9l-.1-.5h0a1.612,1.612,0,0,1-1.3.6,1.5,1.5,0,0,1-1.1-.4,1.8,1.8,0,0,1-.4-.9,1.357,1.357,0,0,1,.7-1.3,3.737,3.737,0,0,1,2-.4V10c0-.6-.3-.9-1-.9a2.133,2.133,0,0,0-1.2.3L53,8.7a2.726,2.726,0,0,1,1.6-.4c1.2,0,1.8.6,1.8,1.9V12c0,.5.1.8.1,1.1m-1.1-1.6v-.7c-1.1,0-1.7.3-1.7.9a.684.684,0,0,0,.7.7,1.421,1.421,0,0,0,.6-.2,1,1,0,0,0,.4-.5Z" fill="#fff"/>
      <path id="Path_71" data-name="Path 71" d="M59.4,7.1a.52.52,0,0,1-.2.4.764.764,0,0,1-.5.2.52.52,0,0,1-.4-.2.758.758,0,0,1-.2-.4.52.52,0,0,1,.2-.4.758.758,0,0,1,.4-.2.52.52,0,0,1,.4.2c.2.1.3.2.3.4m-.2,6h-1V8.5h1Z" fill="#fff"/>
      <rect id="Rectangle_6" data-name="Rectangle 6" width="1" height="6.7" transform="translate(61.1 6.4)" fill="#fff"/>
      <path id="Path_72" data-name="Path 72" d="M67.4,13.1h-.9l-.1-.5h0a1.816,1.816,0,0,1-1.4.6,1.5,1.5,0,0,1-1.1-.4,1.8,1.8,0,0,1-.4-.9,1.357,1.357,0,0,1,.7-1.3,3.737,3.737,0,0,1,2-.4V10c0-.6-.3-.9-1-.9a2.133,2.133,0,0,0-1.2.3l-.2-.7a2.726,2.726,0,0,1,1.6-.4c1.2,0,1.8.6,1.8,1.9V12c.1.5.1.8.2,1.1m-1.1-1.6v-.7c-1.1,0-1.7.3-1.7.9a.684.684,0,0,0,.7.7,1.421,1.421,0,0,0,.6-.2,1,1,0,0,0,.4-.5Z" fill="#fff"/>
      <path id="Path_73" data-name="Path 73" d="M73.5,10.7a2.883,2.883,0,0,1-.6,1.9,1.816,1.816,0,0,1-1.4.6,1.486,1.486,0,0,1-1.4-.8h0l-.1.7H69V6.4h1V9.2a1.645,1.645,0,0,1,1.5-.8,1.816,1.816,0,0,1,1.4.6,2.523,2.523,0,0,1,.6,1.7m-1.1.1a2.016,2.016,0,0,0-.3-1.1,1.05,1.05,0,0,0-.9-.5,1.445,1.445,0,0,0-.7.2,1.612,1.612,0,0,0-.4.7v1.1a1.032,1.032,0,0,0,1.1,1.1.975.975,0,0,0,.9-.4,1.609,1.609,0,0,0,.3-1.1" fill="#fff"/>
      <rect id="Rectangle_7" data-name="Rectangle 7" width="1" height="6.7" transform="translate(75 6.4)" fill="#fff"/>
      <path id="Path_74" data-name="Path 74" d="M81.6,10.6v.5H78.5a1.333,1.333,0,0,0,.4,1,1.689,1.689,0,0,0,1,.3,3.73,3.73,0,0,0,1.2-.2l.2.7a3.339,3.339,0,0,1-1.5.3,2.352,2.352,0,0,1-1.7-.6,2.352,2.352,0,0,1-.6-1.7,2.352,2.352,0,0,1,.6-1.7,1.865,1.865,0,0,1,1.6-.7,1.579,1.579,0,0,1,1.5.7,1.955,1.955,0,0,1,.4,1.4m-1-.3a1.884,1.884,0,0,0-.2-.8.812.812,0,0,0-.8-.4.909.909,0,0,0-.8.4,1.136,1.136,0,0,0-.3.8Z" fill="#fff"/>
      <path id="Path_75" data-name="Path 75" d="M90.1,10.8a2.352,2.352,0,0,1-.6,1.7,2.06,2.06,0,0,1-1.7.7,1.865,1.865,0,0,1-1.6-.7,2.352,2.352,0,0,1-.6-1.7A2.792,2.792,0,0,1,86.2,9a2.06,2.06,0,0,1,1.7-.7,1.865,1.865,0,0,1,1.6.7,2.792,2.792,0,0,1,.6,1.8m-1.1,0a2.016,2.016,0,0,0-.3-1.1.874.874,0,0,0-.9-.5,1.05,1.05,0,0,0-.9.5,2.167,2.167,0,0,0,0,2.2.874.874,0,0,0,.9.5.961.961,0,0,0,.9-.6,1.493,1.493,0,0,0,.3-1" fill="#fff"/>
      <path id="Path_76" data-name="Path 76" d="M95.6,13.1h-1V10.5q0-1.2-.9-1.2a.908.908,0,0,0-.7.3,1.136,1.136,0,0,0-.3.8v2.7h-1V8.5h.9v.7h0a1.205,1.205,0,0,1,.5-.5,1.613,1.613,0,0,1,.9-.3,1.5,1.5,0,0,1,1.1.4,1.721,1.721,0,0,1,.5,1.5Z" fill="#fff"/>
      <path id="Path_77" data-name="Path 77" d="M102.3,9.3h-1.1v2.2q0,.9.6.9h.5v.8a1.949,1.949,0,0,1-.8.1.975.975,0,0,1-.9-.4,1.922,1.922,0,0,1-.3-1.2V9.3h-.7V8.5h.7V7.6l1-.3V8.4h1.1v.9Z" fill="#fff"/>
      <path id="Path_78" data-name="Path 78" d="M107.7,13.1h-1V10.5q0-1.2-.9-1.2a.963.963,0,0,0-1,.7v3.2h-1V6.4h1V9.2h0a1.734,1.734,0,0,1,2.5-.3,2.25,2.25,0,0,1,.5,1.5v2.7Z" fill="#fff"/>
      <path id="Path_79" data-name="Path 79" d="M113,10.6v.5h-3.1a1.333,1.333,0,0,0,.4,1,1.689,1.689,0,0,0,1,.3,3.73,3.73,0,0,0,1.2-.2l.2.7a3.653,3.653,0,0,1-1.5.3,2.352,2.352,0,0,1-1.7-.6,2.352,2.352,0,0,1-.6-1.7,2.352,2.352,0,0,1,.6-1.7,1.865,1.865,0,0,1,1.6-.7,1.579,1.579,0,0,1,1.5.7,2.588,2.588,0,0,1,.4,1.4m-1-.3a1.884,1.884,0,0,0-.2-.8.812.812,0,0,0-.8-.4.909.909,0,0,0-.8.4,1.136,1.136,0,0,0-.3.8Z" fill="#fff"/>
    </g>
  </g>
</svg>
