<svg id="Group_10341" data-name="Group 10341" xmlns="http://www.w3.org/2000/svg" width="44" height="44" viewBox="0 0 44 44">
  <g id="delivery-man" transform="translate(0)">
    <g id="Group_10306" data-name="Group 10306" transform="translate(0.644 19.756)">
      <path id="Path_8275" data-name="Path 8275" d="M90.647,48.321H79.8v3.767A1.7,1.7,0,0,0,81.5,53.78h3.9l2.326,1.175,2.926-1.175Z" transform="translate(-79.804 -48.321)" fill="#ffe07d" fill-rule="evenodd"/>
    </g>
    <g id="Group_10307" data-name="Group 10307" transform="translate(6.235 25.453)">
      <path id="Path_8276" data-name="Path 8276" d="M53.392,61.72H48.14v2.416a1.056,1.056,0,0,0,1.052,1.053h17.1c0-1.519,0-2.292-1.162-2.292l-2.314,0a3.251,3.251,0,0,1-2.945-1.175Z" transform="translate(-48.14 -61.72)" fill="#6f6571" fill-rule="evenodd"/>
    </g>
    <g id="Group_10308" data-name="Group 10308" transform="translate(6.079 29.817)">
      <path id="Path_8277" data-name="Path 8277" d="M47.032,70.235H31.994c-.882,1.536-1.591,3.381-.979,6.912,1.023-3.481,11.415-2.092,12.482,1.926H54.964c.434-.983.843-1.953,1.2-2.933H52.932C46.394,73.673,48.5,74.772,47.032,70.235Z" transform="translate(-30.786 -70.235)" fill="#ffe07d" fill-rule="evenodd"/>
    </g>
    <g id="Group_10309" data-name="Group 10309" transform="translate(15.392 9.844)">
      <path id="Path_8278" data-name="Path 8278" d="M57.834,34.115a24.536,24.536,0,0,1-.87,3.333l-3.306,1.3-3.686-1.3c.129-6.975,2.736-10.32,4.952-11.4a5.381,5.381,0,0,1,1.618-.838s1.077,1.723,1.133,1.723a9.251,9.251,0,0,1,.543,3.657Z" transform="translate(-49.972 -25.207)" fill="#eceaec" fill-rule="evenodd"/>
    </g>
    <g id="Group_10310" data-name="Group 10310" transform="translate(15.38 22.888)">
      <path id="Path_8279" data-name="Path 8279" d="M44.257,55.251h6.991c1.61.176,3.591,1.4,3.591,5.2v3.981H51.19V61.356c0-1.519,0-2.292-1.162-2.292l-2.314,0a3.251,3.251,0,0,1-2.945-1.175A4.315,4.315,0,0,1,44.257,55.251Z" transform="translate(-44.245 -55.251)" fill="#ff8086" fill-rule="evenodd"/>
    </g>
    <g id="Group_10311" data-name="Group 10311" transform="translate(15.392 10.693)">
      <path id="Path_8280" data-name="Path 8280" d="M55.373,38.666c.129-6.975,2.736-10.32,4.952-11.4a4.475,4.475,0,0,0,1.1.563c-1.963,1.485-3.932,4.8-4.044,10.839Z" transform="translate(-55.373 -27.263)" fill="#dad8db" fill-rule="evenodd"/>
    </g>
    <g id="Group_10312" data-name="Group 10312" transform="translate(15.38 22.663)">
      <path id="Path_8281" data-name="Path 8281" d="M60.282,55.251h2a4.315,4.315,0,0,0,.512,2.635,3.011,3.011,0,0,0,1.537,1.175h-.6a3.251,3.251,0,0,1-2.945-1.175A4.315,4.315,0,0,1,60.282,55.251Z" transform="translate(-60.27 -55.251)" fill="#f76672" fill-rule="evenodd"/>
    </g>
    <g id="Group_10313" data-name="Group 10313" transform="translate(0.644 13.862)">
      <path id="Path_8282" data-name="Path 8282" d="M88.957,34.9H81.5A1.7,1.7,0,0,0,79.8,36.6v2.8H90.647V36.6A1.7,1.7,0,0,0,88.957,34.9Z" transform="translate(-79.804 -34.905)" fill="#ffe07d" fill-rule="evenodd"/>
    </g>
    <g id="Group_10314" data-name="Group 10314" transform="translate(0.644 17.695)">
      <path id="Path_8283" data-name="Path 8283" d="M90.647,43.857H79.8v2.66H90.647Z" transform="translate(-79.804 -43.857)" fill="#ff8086" fill-rule="evenodd"/>
    </g>
    <g id="Group_10315" data-name="Group 10315" transform="translate(0.644 13.843)">
      <path id="Path_8284" data-name="Path 8284" d="M98.977,38.552H96.714V36.6A1.7,1.7,0,0,1,98.4,34.9h2.263A1.7,1.7,0,0,0,98.977,36.6Z" transform="translate(-96.714 -34.905)" fill="#ffc269" fill-rule="evenodd"/>
    </g>
    <g id="Group_10316" data-name="Group 10316" transform="translate(0.644 17.695)">
      <path id="Path_8285" data-name="Path 8285" d="M103.127,46.517h-2.263v-2.66h2.263v2.66Z" transform="translate(-100.864 -43.857)" fill="#f76672" fill-rule="evenodd"/>
    </g>
    <g id="Group_10317" data-name="Group 10317" transform="translate(0.644 20.582)">
      <path id="Path_8286" data-name="Path 8286" d="M98.977,50.386v2.926A1.7,1.7,0,0,0,100.668,55H98.4a1.69,1.69,0,0,1-1.691-1.692V50.386h2.263Z" transform="translate(-96.714 -50.386)" fill="#ffc269" fill-rule="evenodd"/>
    </g>
    <g id="Group_10318" data-name="Group 10318" transform="translate(6.028 32.178)">
      <path id="Path_8287" data-name="Path 8287" d="M74.641,82.506A6.375,6.375,0,0,0,62.159,80.58a6.54,6.54,0,0,0-.28,1.721c-.007.234.153.2.373.2Q68.445,82.506,74.641,82.506Z" transform="translate(-61.878 -76.028)" fill="#ff8086" fill-rule="evenodd"/>
    </g>
    <g id="Group_10319" data-name="Group 10319" transform="translate(7.47 38.655)">
      <path id="Path_8288" data-name="Path 8288" d="M75.534,91.928H65.819a4.86,4.86,0,0,0,9.715,0Z" transform="translate(-65.819 -91.928)" fill="#6f6571" fill-rule="evenodd"/>
    </g>
    <g id="Group_10320" data-name="Group 10320" transform="translate(33.497 37.619)">
      <path id="Path_8289" data-name="Path 8289" d="M13.353,89.385,5,91.308a4.288,4.288,0,1,0,8.358-1.924Z" transform="translate(-4.995 -89.385)" fill="#6f6571" fill-rule="evenodd"/>
    </g>
    <g id="Group_10321" data-name="Group 10321" transform="translate(31.847 32.746)">
      <path id="Path_8290" data-name="Path 8290" d="M12.216,79.954a5.834,5.834,0,0,0-5.376-2.5c-3.781.8-5.011,3.06-5.257,5.878a5.836,5.836,0,0,0,.129,1.153c.024.107.1.063.212.037l1.308-.3L11.59,82.3l.626-.144.875-.2a5.786,5.786,0,0,0-.874-2Z" transform="translate(-1.583 -77.423)" fill="#eceaec" fill-rule="evenodd"/>
    </g>
    <g id="Group_10322" data-name="Group 10322" transform="translate(29.416 20.402)">
      <path id="Path_8291" data-name="Path 8291" d="M24.6,59.488,21.227,47.8l-1.52-.68-1.7.68c2.234,6.193,1.61,10.515.1,14.64-.361.98-.77,1.95-1.2,2.933h2.429Z" transform="translate(-16.908 -47.125)" fill="#ff8086" fill-rule="evenodd"/>
    </g>
    <g id="Group_10323" data-name="Group 10323" transform="translate(21.143 4.733)">
      <path id="Path_8292" data-name="Path 8292" d="M47.45,15.414l-3.961-.844c-.4.037-1.552,1-1.552,1.607l.843,4.286a3.869,3.869,0,0,0,1.108.163,3.83,3.83,0,0,0,3.561-5.212Z" transform="translate(-41.937 -14.571)" fill="#ffece4" fill-rule="evenodd"/>
    </g>
    <g id="Group_10324" data-name="Group 10324" transform="translate(18.288 0.645)">
      <path id="Path_8293" data-name="Path 8293" d="M49.079,9.467a4.825,4.825,0,1,0-9.647,0,5.161,5.161,0,0,0,2.056,4.327,4.6,4.6,0,0,0,1.642.722V10.231c0-.6.307-.727.709-.763h5.24Z" transform="translate(-39.432 -4.535)" fill="#ff8086" fill-rule="evenodd"/>
    </g>
    <g id="Group_10325" data-name="Group 10325" transform="translate(18.288 0.645)">
      <path id="Path_8294" data-name="Path 8294" d="M52.423,5.264A4.707,4.707,0,0,0,49.9,4.535a4.877,4.877,0,0,0-4.823,4.932,5.161,5.161,0,0,0,2.056,4.327,4.475,4.475,0,0,0,1.118.57,5.61,5.61,0,0,1-1.51-3.986,5.1,5.1,0,0,1,5.043-5.156,4.656,4.656,0,0,1,.641.042Z" transform="translate(-45.076 -4.535)" fill="#f76672" fill-rule="evenodd"/>
    </g>
    <g id="Group_10326" data-name="Group 10326" transform="translate(22.325 32.38)">
      <path id="Path_8295" data-name="Path 8295" d="M42.356,77.787H38.707v2.3c0,.493.268.529.663.529h5.237c.1-2.306-1.291-2.828-2.251-2.828Z" transform="translate(-38.707 -77.787)" fill="#6f6571" fill-rule="evenodd"/>
    </g>
    <g id="Group_10327" data-name="Group 10327" transform="translate(29.416 21.082)">
      <path id="Path_8296" data-name="Path 8296" d="M26.5,63.434c1.508-4.125,2.132-8.448-.1-14.64h1.717c2.234,6.193,1.613,10.515.1,14.64-.358.98-.767,1.95-1.2,2.933H25.3C25.727,65.385,26.136,64.414,26.5,63.434Z" transform="translate(-25.296 -48.794)" fill="#f76672" fill-rule="evenodd"/>
    </g>
    <g id="Group_10328" data-name="Group 10328" transform="translate(31.848 32.746)">
      <path id="Path_8297" data-name="Path 8297" d="M13,83.33l5.257-5.878a5.744,5.744,0,0,1,1.6.063L14.8,83.165a5.816,5.816,0,0,0,.1,1l-.256.059-1.308.3c-.117.027-.188.071-.212-.037A5.815,5.815,0,0,1,13,83.33Z" transform="translate(-12.997 -77.424)" fill="#dad8db" fill-rule="evenodd"/>
    </g>
    <g id="Group_10329" data-name="Group 10329" transform="translate(6.079 29.313)">
      <path id="Path_8298" data-name="Path 8298" d="M54.411,70.235H69.449v1.324H57.093a1.831,1.831,0,0,0-1.876,1.314,6.1,6.1,0,0,0-.5,1.933,6.462,6.462,0,0,0-1.286,2.34C52.82,73.617,53.529,71.771,54.411,70.235Z" transform="translate(-53.202 -70.235)" fill="#ffc269" fill-rule="evenodd"/>
    </g>
    <g id="Group_10330" data-name="Group 10330" transform="translate(6.028 32.178)">
      <path id="Path_8299" data-name="Path 8299" d="M75.673,78.239a6.33,6.33,0,0,1,4.814-2.211,6.456,6.456,0,0,1,1.4.154A6.435,6.435,0,0,0,76.91,82.3c0,.161.068.2.185.2H74.479c-.219,0-.38.029-.373-.2a6.537,6.537,0,0,1,.28-1.721c0-.017.01-.032.015-.046v0a6.467,6.467,0,0,1,1.272-2.292Z" transform="translate(-74.106 -76.028)" fill="#f76672" fill-rule="evenodd"/>
    </g>
    <g id="Group_10331" data-name="Group 10331" transform="translate(33.497 37.619)">
      <path id="Path_8300" data-name="Path 8300" d="M5.25,91.25l8.1-1.865a4.262,4.262,0,0,1,.107,1.143l-6.431,1.48-.253.059a4.263,4.263,0,0,0,1.652,2.506,4.285,4.285,0,0,1-3.432-3.264Z" transform="translate(-4.994 -89.385)" fill="#5d5360" fill-rule="evenodd"/>
    </g>
    <g id="Group_10332" data-name="Group 10332" transform="translate(7.47 38.655)">
      <path id="Path_8301" data-name="Path 8301" d="M67.365,91.928h8.168a5.042,5.042,0,0,1-.3,1.465H68a5.022,5.022,0,0,0,1.191,3,4.96,4.96,0,0,1-3.369-4.464Z" transform="translate(-65.819 -91.928)" fill="#5d5360" fill-rule="evenodd"/>
    </g>
    <g id="Group_10333" data-name="Group 10333" transform="translate(6.235 25.453)">
      <path id="Path_8302" data-name="Path 8302" d="M82.011,64.136V61.72h3.3v2.416a1.056,1.056,0,0,0,1.052,1.053h-3.3A1.056,1.056,0,0,1,82.011,64.136Z" transform="translate(-82.011 -61.72)" fill="#5d5360" fill-rule="evenodd"/>
    </g>
    <g id="Group_10334" data-name="Group 10334" transform="translate(21.986 5.577)">
      <path id="Path_8303" data-name="Path 8303" d="M46.894,17.619H43.639c-.4.037-.709.161-.709.766v3.464a3.909,3.909,0,0,1-.945-.158V17.4c0-.6.307-.727.709-.763h3.961A3.828,3.828,0,0,1,46.894,17.619Z" transform="translate(-41.985 -16.641)" fill="#ffddce" fill-rule="evenodd"/>
    </g>
    <g id="Group_10335" data-name="Group 10335" transform="translate(29.793 15.782)">
      <path id="Path_8304" data-name="Path 8304" d="M25.853,39.531,21.3,41.037a4.05,4.05,0,0,0,.18,2.172h5.3V39.855c0-.661-.343-.514-.921-.324Z" transform="translate(-21.207 -39.37)" fill="#ffe07d" fill-rule="evenodd"/>
    </g>
    <g id="Group_10336" data-name="Group 10336" transform="translate(27.187 17.334)">
      <path id="Path_8305" data-name="Path 8305" d="M32.524,45.386h2.3c1.238,0,1.274-2.053-.18-2.172l-2.124-.171-.57,1.207Z" transform="translate(-31.954 -43.043)" fill="#ffece4" fill-rule="evenodd"/>
    </g>
    <g id="Group_10337" data-name="Group 10337" transform="translate(19.999 14.17)">
      <path id="Path_8306" data-name="Path 8306" d="M43.507,36.726l-.762-.656c-1.91-1.646-4.324,1.131-1.771,2.789l2.149,1.395,1.082.7h3.423V38.613L45.5,38.44Z" transform="translate(-39.868 -35.567)" fill="#ff8086" fill-rule="evenodd"/>
    </g>
    <g id="Group_10338" data-name="Group 10338" transform="translate(27.757 18.563)">
      <path id="Path_8307" data-name="Path 8307" d="M31.952,47.113V45.977H34.96a.948.948,0,0,0,.207-.02.953.953,0,0,1-.911,1.156h-2.3Z" transform="translate(-31.952 -45.958)" fill="#ffddce" fill-rule="evenodd"/>
    </g>
    <g id="Group_10339" data-name="Group 10339" transform="translate(19.999 14.463)">
      <path id="Path_8308" data-name="Path 8308" d="M40.974,39.268c-1.544-1-1.272-2.416-.392-3.011a2,2,0,0,0,1.1,1.877l1.674,1.085.473.31,1.082.7h2.721v1.136H44.2l-1.082-.7Z" transform="translate(-39.868 -36.257)" fill="#f76672" fill-rule="evenodd"/>
    </g>
    <g id="Group_10340" data-name="Group 10340" transform="translate(29.882 16.885)">
      <path id="Path_8309" data-name="Path 8309" d="M28.445,42.583l1.834-.6a2.789,2.789,0,0,1,.516,2.777h-2.17a.953.953,0,0,0,.911-1.156A1.143,1.143,0,0,0,28.445,42.583Z" transform="translate(-28.445 -41.978)" fill="#ffc269" fill-rule="evenodd"/>
    </g>
    <path id="Path_8310" data-name="Path 8310" d="M2.335,16.042H9.8a2.409,2.409,0,0,1,2.335,2.472V27.6h2.791a7.16,7.16,0,0,1-.175-2.119h0a20.78,20.78,0,0,1,1.764-8.667,9.184,9.184,0,0,1,2.731-3.483,6.531,6.531,0,0,1-1.6-4.477,5.7,5.7,0,0,1,5.468-5.9,5.7,5.7,0,0,1,5.468,5.9.664.664,0,0,1-.645.682H27.5a5.072,5.072,0,0,1,.062.786,4.675,4.675,0,0,1-3.6,4.638,12.125,12.125,0,0,1,.321,2.966l1.608,1.463,3.911.335,4.512-1.578a1.3,1.3,0,0,1,1.289,0,1.249,1.249,0,0,1,.4,1.017v3.549a.664.664,0,0,1-.645.682h-.767l1.177,4.3a.688.688,0,0,1-.44.844.64.64,0,0,1-.8-.465l-1.281-4.681H31.419c2.279,7.352.979,12.26-1.02,17.226h1.159l4.826-5.708-1.02-3.729a.688.688,0,0,1,.44-.844.64.64,0,0,1,.8.465l.976,3.567a6.565,6.565,0,0,1,6.407,5.316.684.684,0,0,1-.484.817l-.915.223a5.206,5.206,0,0,1-3.8,5.585,4.664,4.664,0,0,1-3.723-.663,5.133,5.133,0,0,1-2-2.6l-.722.176a.8.8,0,0,1-.623-.037.781.781,0,0,1-.363-.523c-.045-.223-.08-.45-.1-.679H17.763a5.651,5.651,0,0,1-5.435,4.972,5.651,5.651,0,0,1-5.435-4.972H6.281a.854.854,0,0,1-.669-.257.9.9,0,0,1-.228-.663,8.144,8.144,0,0,1,.264-1.847,11.192,11.192,0,0,1,.713-6.877,1.823,1.823,0,0,1-.77-1.5V28.962H2.335A2.409,2.409,0,0,1,0,26.49V18.513a2.409,2.409,0,0,1,2.335-2.472ZM35.743,44.49a3.449,3.449,0,0,0,2.749.49h0a3.837,3.837,0,0,0,2.823-3.946l-6.991,1.7A3.783,3.783,0,0,0,35.743,44.49Zm-3.225-2.715,10.026-2.441a5.2,5.2,0,0,0-5.132-3.6L32.5,41.547Q32.507,41.662,32.518,41.775ZM22.782,29.894a6.406,6.406,0,0,1,.187,2.056v2.573h2.36v-3.53c0-3.991-2.059-4.7-2.983-4.819H16.028a3,3,0,0,0,.585,1.958,2.887,2.887,0,0,0,2.236.709l2.314,0a1.55,1.55,0,0,1,1.62,1.05Zm.187,5.993v1.628h4.6a2,2,0,0,0-.444-1.166,1.54,1.54,0,0,0-1.147-.462ZM16.056,24.81h5.862c.235-.784.445-1.642.618-2.523l-1.782-1.224a2.853,2.853,0,0,1-1.389-2.591,2.4,2.4,0,0,1,1.42-1.973,2.219,2.219,0,0,1,2.163.252,8.465,8.465,0,0,0-.311-1.729,4.324,4.324,0,0,1-.816-.17,5.173,5.173,0,0,1-1.5-.631C19.075,15.006,16.345,17.551,16.056,24.81ZM27.244,8.171a4.31,4.31,0,0,0-4.132-3.854,4.373,4.373,0,0,0-4.179,4.535,4.675,4.675,0,0,0,2.409,4.395V9.66a1.333,1.333,0,0,1,1.295-1.486l.058,0ZM26.27,10.32a3.583,3.583,0,0,0-.086-.786H22.727c-.04,0-.069.009-.09.014a.857.857,0,0,0-.006.112v3.989a3.017,3.017,0,0,0,.463.036h0A3.278,3.278,0,0,0,26.27,10.32Zm.836,10.538-1.527-.131a.627.627,0,0,1-.369-.163l-2.755-2.507h0a1.245,1.245,0,0,0-.828-.367.924.924,0,0,0-.363.075,1.027,1.027,0,0,0-.616.84,1.515,1.515,0,0,0,.807,1.314l3.07,2.108h2.58V20.858Zm2.724.233-1.435-.123v1.059h1.667c.216,0,.269-.19.275-.349A.535.535,0,0,0,29.829,21.091Zm1.525-.471a2.072,2.072,0,0,1,.237,1.4s0,0,0,.006h3.123V19.439l-3.363,1.176Zm-1.3,2.771H24.335a.619.619,0,0,1-.351-.11l-.292-.2c-.14.656-.3,1.295-.474,1.9,1.315.41,3.4,1.737,3.4,6.014v3.6a2.646,2.646,0,0,1,1.435.815,3.429,3.429,0,0,1,.806,2.108h1.3a21.139,21.139,0,0,0-.1-14.123ZM29,40.615c.238-.58.468-1.157.684-1.736H22.988c-.867,0-1.307-.418-1.307-1.241v-5H16.593a.683.683,0,0,1,0-1.364h5.083a3.255,3.255,0,0,0-.1-.891c-.033-.091-.061-.17-.415-.17l-2.314,0a4.025,4.025,0,0,1-3.17-1.134c-.032-.035-.062-.072-.092-.109H6.88v1.874a.426.426,0,0,0,.408.432H13.7a.683.683,0,0,1,0,1.364H7.666a8.421,8.421,0,0,0-.94,4.211,6.861,6.861,0,0,1,5.682-3.079,6.757,6.757,0,0,1,4.971,2.2,7.708,7.708,0,0,1,2.026,4.654ZM12.328,45.59a4.317,4.317,0,0,0,4.125-3.609H8.2A4.317,4.317,0,0,0,12.328,45.59ZM7.47,40.617H18.111a5.917,5.917,0,0,0-5.7-5.489,5.772,5.772,0,0,0-5.485,4.335l-.007.024a6.616,6.616,0,0,0-.213,1.13ZM1.289,26.49A1.08,1.08,0,0,0,2.335,27.6h8.508V24.077H1.289Zm0-3.777h9.554v-1.45H1.289Zm0-2.814h9.554V18.513A1.08,1.08,0,0,0,9.8,17.405H2.335a1.08,1.08,0,0,0-1.046,1.108Z" transform="translate(0 -2.953)"/>
  </g>
</svg>
