<svg xmlns="http://www.w3.org/2000/svg" xmlns:xlink="http://www.w3.org/1999/xlink" width="44" height="44" viewBox="0 0 44 44">
  <defs>
    <clipPath id="clip-path">
      <rect id="Rectangle_18731" data-name="Rectangle 18731" width="44" height="44" transform="translate(534 1367)" fill="#fff"/>
    </clipPath>
  </defs>
  <g id="Mask_Group_28" data-name="Mask Group 28" transform="translate(-534 -1367)" clip-path="url(#clip-path)">
    <g id="recommendation" transform="translate(534 1367)">
      <g id="Group_10345" data-name="Group 10345">
        <circle id="Ellipse_403" data-name="Ellipse 403" cx="2.933" cy="2.933" r="2.933" transform="translate(2.933 29.333)" fill="#e9cd4b"/>
        <path id="Path_8311" data-name="Path 8311" d="M5.867,35.2A5.133,5.133,0,0,1,11,40.333v2.933H.733V40.333A5.133,5.133,0,0,1,5.867,35.2Z" fill="#e9cd4b"/>
      </g>
      <g id="Group_10346" data-name="Group 10346">
        <circle id="Ellipse_404" data-name="Ellipse 404" cx="2.933" cy="2.933" r="2.933" transform="translate(35.2 29.333)" fill="#de2f55"/>
        <path id="Path_8312" data-name="Path 8312" d="M38.133,35.2a5.133,5.133,0,0,1,5.133,5.133v2.933H33V40.333A5.133,5.133,0,0,1,38.133,35.2Z" fill="#de2f55"/>
      </g>
      <path id="Path_8313" data-name="Path 8313" d="M43.267,14.947c0,7.85-8.208,14.214-18.333,14.214a23.09,23.09,0,0,1-6.377-.883c-.779-.224-6.1,2.063-6.823,1.762-1.192-.494,2.26-3.638,1.243-4.317C9.072,23.116,6.6,19.255,6.6,14.947,6.6,7.1,14.808.733,24.933.733S43.267,7.1,43.267,14.947Z" fill="#b7f9f6"/>
      <path id="Path_8314" data-name="Path 8314" d="M38.867,12.833A2.042,2.042,0,0,0,36.667,11H28.6V5.5a1.833,1.833,0,1,0-3.667,0V11h-2.2V23.467H34.1a1.825,1.825,0,0,0,1.458-2.933h.008a1.832,1.832,0,0,0,1.308-3.116,1.84,1.84,0,0,0,1.259-1.651,1.675,1.675,0,0,0-.6-1.25A1.859,1.859,0,0,0,38.867,12.833Z" fill="#f0b77d"/>
      <path id="Path_8315" data-name="Path 8315" d="M19.8,11h2.933V23.467H19.8Z" fill="#de5774"/>
      <path id="Path_8316" data-name="Path 8316" d="M14.667,11H19.8V23.467H14.667Z" fill="#de2f55"/>
      <path id="Path_8317" data-name="Path 8317" d="M8.29,35a3.667,3.667,0,1,0-4.847,0A5.87,5.87,0,0,0,0,40.333v2.933A.733.733,0,0,0,.733,44H11a.733.733,0,0,0,.733-.733h0V40.333A5.87,5.87,0,0,0,8.29,35Zm-4.623-2.73a2.2,2.2,0,1,1,2.2,2.2A2.2,2.2,0,0,1,3.667,32.267Zm6.6,10.267h-8.8v-2.2a4.4,4.4,0,1,1,8.8,0Z"/>
      <path id="Path_8318" data-name="Path 8318" d="M40.557,35a3.667,3.667,0,1,0-4.847,0,5.87,5.87,0,0,0-3.443,5.336v2.933A.733.733,0,0,0,33,44H43.267A.733.733,0,0,0,44,43.267h0V40.333A5.87,5.87,0,0,0,40.557,35Zm-4.623-2.73a2.2,2.2,0,1,1,2.2,2.2A2.2,2.2,0,0,1,35.933,32.267Zm6.6,10.267h-8.8v-2.2a4.4,4.4,0,1,1,8.8,0Z"/>
      <path id="Path_8319" data-name="Path 8319" d="M11.921,30.8a1.21,1.21,0,0,1-.469-.082,1.112,1.112,0,0,1-.65-.693c-.23-.723.286-1.543.884-2.494a8.125,8.125,0,0,0,.723-1.306c-4.161-2.84-6.543-6.941-6.543-11.277C5.867,6.705,14.42,0,24.933,0S44,6.705,44,14.947,35.447,29.894,24.933,29.894a23.8,23.8,0,0,1-6.58-.912h0a24.141,24.141,0,0,0-2.865.857,14.806,14.806,0,0,1-3.566.96ZM24.933,1.467c-9.7,0-17.6,6.047-17.6,13.481,0,3.893,2.205,7.6,6.051,10.165,1.1.732.236,2.1-.456,3.2-.169.269-.411.653-.566.955.67-.154,1.828-.541,2.661-.819,2.278-.759,3.192-1.033,3.736-.875a22.336,22.336,0,0,0,6.174.854c9.7,0,17.6-6.047,17.6-13.48s-7.9-13.481-17.6-13.481Z"/>
      <path id="Path_8320" data-name="Path 8320" d="M39.6,12.833a2.772,2.772,0,0,0-2.933-2.567H29.333V5.5a2.567,2.567,0,1,0-5.133,0v4.767H14.667a.733.733,0,0,0-.733.733h0V23.467a.733.733,0,0,0,.733.733H34.1a2.57,2.57,0,0,0,2.567-2.567,2.512,2.512,0,0,0-.068-.583,2.567,2.567,0,0,0,1.318-3.383l0-.011a2.433,2.433,0,0,0,.955-1.89,2.279,2.279,0,0,0-.242-1.019A2.43,2.43,0,0,0,39.6,12.833ZM22,11.733v11H20.533v-11Zm-6.6,0h3.667v11H15.4Zm21.888,2.093a.734.734,0,0,0-.24,1.238.957.957,0,0,1,.352.7,1.128,1.128,0,0,1-.8.969.734.734,0,0,0-.253,1.2,1.1,1.1,0,0,1-.792,1.869.733.733,0,0,0-.585,1.175,1.092,1.092,0,0,1-.873,1.758H23.467v-11h1.467A.733.733,0,0,0,25.667,11h0V5.5a1.1,1.1,0,1,1,2.2,0V11a.733.733,0,0,0,.733.733h8.067c.795,0,1.467.5,1.467,1.1a1.139,1.139,0,0,1-.845.993Z"/>
    </g>
  </g>
</svg>
