<svg xmlns="http://www.w3.org/2000/svg" width="46.26" height="49.837" viewBox="0 0 46.26 49.837">
  <g id="Group_10352" data-name="Group 10352" opacity="0.73">
    <path id="Path_8321" data-name="Path 8321" d="M77.423,75.761a4.2,4.2,0,0,1,.033-1.174,7.574,7.574,0,0,1,.253-.894,9.691,9.691,0,0,0,.08-6.152c-.047-.127-.2-.363-.35-.21-.02.023.077.6.08.674l.09,1.811a7.225,7.225,0,0,1,.043,1.857c-.127.557-.363,1.13-.53,1.684-.26-1.5-.443-3-.83-4.482-.21-.807-.46-1.6-.707-2.387a4.811,4.811,0,0,0-.754-1.627c-.187.023-.2.283-.163.467.253,1.22.5,2.438.754,3.661.07.343.143.694.247,1.03.113.377.263.74.373,1.117.08.267.137.54.2.81.137.64.27,1.277.38,1.917.08.477.29,1.18-.16,1.551A18.36,18.36,0,0,1,72.965,70.1a8.431,8.431,0,0,0-.6-1.087c-.257-.37-.577-.7-.86-1.057a12.472,12.472,0,0,1-.8-1.184c-.187-.293-.367-.594-.553-.89a2.06,2.06,0,0,0,.534,1.637L71.8,69.146a3.106,3.106,0,0,1,.7,1.551,8.239,8.239,0,0,1-1.14-1.044,22.1,22.1,0,0,0-4.718-3.635,3.629,3.629,0,0,0,1.29,1.447,56.407,56.407,0,0,1,4.652,4.325,12.354,12.354,0,0,1,1.447,1.624c-.077.127-.267.047-.38-.047a29.6,29.6,0,0,0-5.8-3.951.92.92,0,0,0,.307.764,3.38,3.38,0,0,0,.717.474c1.484.84,2.694,2.114,4.188,2.934.327.18.664.337.984.534a6.014,6.014,0,0,1,.734.54c.42.357,2.731,2.444,2.217,2.941a.943.943,0,0,1-.767.153A8.547,8.547,0,0,1,73.9,77a5.781,5.781,0,0,1-1.067-.554,6.384,6.384,0,0,1-1.09-1.094,30.271,30.271,0,0,0-5.465-4.982,49.354,49.354,0,0,0,3.628,3.655,4.679,4.679,0,0,1,1.581,1.934q-3.291-1.786-6.449-3.795c.917,1.707,3.268,2.171,4.312,3.8q-1.435-.365-2.864-.727c-.237-.063-.61-.01-.57.233,1.494,1.047,3.431,1.124,5.208,1.534,2.458.564,4.728,1.811,7.206,2.284A12.455,12.455,0,0,1,77.423,75.761Z" transform="translate(-61.648 -59.002)" fill="#597d10"/>
    <path id="Path_8322" data-name="Path 8322" d="M76.339,76.828c.257.31,1.777,1.934,2.277,1.057a.49.49,0,0,0,.017-.363c-.16-.53-.877-.96-1.267-1.3a10.612,10.612,0,0,1-1.39-1.374,24.2,24.2,0,0,1-1.6-2.671,7.953,7.953,0,0,1-.89-1.36,10.081,10.081,0,0,0-3.841-5.655,2.514,2.514,0,0,0,.657,1.1A11.515,11.515,0,0,1,72.321,69.9a35,35,0,0,0-5.072-4.688A25.185,25.185,0,0,0,71.975,70.2a6.022,6.022,0,0,1,2.047,2.631q-1-.885-2.021-1.737a1.178,1.178,0,0,0,.544.894.238.238,0,0,1,.1.33c-.137-.107-.277-.223-.413-.337a8.714,8.714,0,0,1-2.2-2.374,9.5,9.5,0,0,0-.627-1.18,4.7,4.7,0,0,0-1.3-1.1,8.691,8.691,0,0,0-1.934-1.047c-.017.3.32.487.6.607a5.906,5.906,0,0,1,1.614.937,2.7,2.7,0,0,1,.934,1.581A13.95,13.95,0,0,1,66.6,66.765a2.283,2.283,0,0,0-1.264-1.027c.223.04.764.944.92,1.137q.5.59,1,1.167A17.712,17.712,0,0,0,69.4,70.016a1.257,1.257,0,0,1-.44-.163,11.89,11.89,0,0,1-1.9-1.1,4.136,4.136,0,0,0-1.687-1.017,7.245,7.245,0,0,0,2.978,2.388c.52.25,1.054.464,1.561.734a16.309,16.309,0,0,1,2.964,2.207.7.7,0,0,1,.287.42,10.452,10.452,0,0,1-3.488-1.621A8.193,8.193,0,0,0,67.9,70.726c-.147.177.047.43.23.57l1.887,1.484a2.188,2.188,0,0,1-1.294-.58c-.824-.627-1.631-1.277-2.411-1.954-.16-.133-.353-.28-.554-.22A7.36,7.36,0,0,0,67.2,71.667,8.084,8.084,0,0,0,69.18,73.16c1.564.734,3.5.43,4.972,1.334A9.929,9.929,0,0,1,76.339,76.828Z" transform="translate(-62.978 -58.302)" fill="#486e00"/>
    <g id="Group_10349" data-name="Group 10349" transform="translate(0 0)">
      <path id="Path_8323" data-name="Path 8323" d="M72.583,79.195a4.152,4.152,0,0,1,.15-1.167,7.127,7.127,0,0,1,.337-.864,9.689,9.689,0,0,0,.68-6.115c-.03-.133-.16-.383-.323-.247-.027.023.017.61.013.68-.03.6-.06,1.21-.09,1.811a7.333,7.333,0,0,1-.14,1.854c-.177.544-.47,1.087-.69,1.624-.113-1.524-.15-3.034-.39-4.542-.13-.82-.3-1.634-.474-2.444a4.64,4.64,0,0,0-.587-1.691c-.187,0-.23.26-.21.447q.2,1.861.393,3.715c.04.35.077.7.143,1.05.08.383.193.764.267,1.15.053.273.087.55.117.827.073.647.143,1.3.187,1.944.037.483.177,1.2-.307,1.527A18.192,18.192,0,0,1,68.7,73.126a8.257,8.257,0,0,0-.5-1.137c-.22-.4-.507-.757-.75-1.14a12.625,12.625,0,0,1-.68-1.254c-.157-.317-.313-.63-.467-.94a2.058,2.058,0,0,0,.37,1.681c.32.574.644,1.147.96,1.721a3.123,3.123,0,0,1,.54,1.617,8.482,8.482,0,0,1-1.034-1.15,21.994,21.994,0,0,0-4.338-4.081,3.65,3.65,0,0,0,1.14,1.567,56.566,56.566,0,0,1,4.212,4.758,12.662,12.662,0,0,1,1.277,1.761c-.087.113-.27.017-.373-.083a29.443,29.443,0,0,0-5.379-4.5.9.9,0,0,0,.227.794,3.358,3.358,0,0,0,.667.54c1.394.98,2.474,2.368,3.878,3.335.31.207.634.4.93.62a6.54,6.54,0,0,1,.677.614c.387.4,2.478,2.7,1.917,3.141a.923.923,0,0,1-.777.08,8.651,8.651,0,0,1-2.244-.977,5.838,5.838,0,0,1-1.01-.657,6.412,6.412,0,0,1-.977-1.2,30.513,30.513,0,0,0-4.952-5.492,50.557,50.557,0,0,0,3.251,3.995,4.63,4.63,0,0,1,1.384,2.077q-3.1-2.1-6.045-4.408c.747,1.787,3.041,2.481,3.918,4.208q-1.39-.5-2.774-1c-.237-.083-.61-.067-.594.177,1.384,1.19,3.3,1.454,5.032,2.034a27.471,27.471,0,0,1,3.291,1.44,14.563,14.563,0,0,0,3.194,1.34.242.242,0,0,0,.26-.16c.167-.4-.167-1.15-.227-1.567A10.461,10.461,0,0,1,72.583,79.195Z" transform="translate(-42.529 -51.455)" fill="#597d10"/>
      <path id="Path_8324" data-name="Path 8324" d="M70.742,80.885c.21.544.687,1.847,1.464,1.721a.485.485,0,0,0,.407-.41c.057-.55-.447-1.114-.7-1.561a11.088,11.088,0,0,1-.884-1.741,24.626,24.626,0,0,1-.667-3.044,7.994,7.994,0,0,1-.413-1.567A10.116,10.116,0,0,0,68.1,67.69a2.544,2.544,0,0,0,.277,1.257,11.52,11.52,0,0,1,.754,4.091,34.593,34.593,0,0,0-3.311-6.062,24.924,24.924,0,0,0,2.891,6.236,6.032,6.032,0,0,1,1.1,3.148c-.444-.77-.894-1.534-1.361-2.287a1.182,1.182,0,0,0,.23,1.02.238.238,0,0,1-.01.34c-.1-.143-.193-.293-.287-.447a8.783,8.783,0,0,1-1.33-2.951,10.246,10.246,0,0,0-.22-1.324,4.779,4.779,0,0,0-.88-1.451,8.835,8.835,0,0,0-1.5-1.614c-.107.283.15.567.377.767a5.933,5.933,0,0,1,1.23,1.4,2.679,2.679,0,0,1,.383,1.8,14.15,14.15,0,0,1-1.734-3.371,2.269,2.269,0,0,0-.87-1.37c.2.1.42,1.137.514,1.367.183.48.377.954.57,1.427a18.848,18.848,0,0,0,1.407,2.554,1.293,1.293,0,0,1-.363-.3,12.654,12.654,0,0,1-1.457-1.651,4.1,4.1,0,0,0-1.274-1.5,7.179,7.179,0,0,0,2.067,3.211c.41.4.847.777,1.244,1.194a16.294,16.294,0,0,1,2.107,3.038.7.7,0,0,1,.137.487A10.5,10.5,0,0,1,66,74.052a8.423,8.423,0,0,0-1.324-1.641c-.193.123-.09.424.037.617.44.67.88,1.337,1.317,2.007a2.184,2.184,0,0,1-1.044-.967q-.87-1.28-1.664-2.614c-.1-.18-.243-.38-.45-.387a7.386,7.386,0,0,0,.847,2.017,7.974,7.974,0,0,0,1.4,2.047c1.244,1.19,3.181,1.521,4.285,2.844A10.118,10.118,0,0,1,70.742,80.885Z" transform="translate(-48.721 -54.305)" fill="#486e00"/>
      <path id="Path_8325" data-name="Path 8325" d="M77.446,79.205a15.125,15.125,0,0,0-2.594-.9c-.45-.1-.907-.153-1.354-.257A29.5,29.5,0,0,1,69.987,76.7c-1.307-.483-2.7-.734-3.958-1.324-1.564-.734-2.871-1.964-4.5-2.534a1.531,1.531,0,0,0,.64.844,19.538,19.538,0,0,0,3.311,2.121,8.3,8.3,0,0,0,2.011.73c.657.143,1.577,0,2.041.577a7.83,7.83,0,0,1-2.734-.15c-1.287-.2-2.121-.54-3.234-.767-1.667-.333-3.451-2.007-4.985-2.541-.367-.047,2.414,1.514,3.1,2.254-.707-.073-1.9-.417-3.018-.614a6.31,6.31,0,0,1-2.491-.84,2.565,2.565,0,0,0,1.717,1.057c4.972.657,8.61,2.257,11.754,2.334a1.556,1.556,0,0,1,.624.04c.76.367-.26.634-.53.684-.654.127-1.307.243-1.957.377a21.838,21.838,0,0,0-3.728,1.037,6.528,6.528,0,0,1-1.621.507,12.969,12.969,0,0,0-2.5.1,7.077,7.077,0,0,0,4.845-.137c.79-.32,1.524-.784,2.331-1.057a10.657,10.657,0,0,1,2.127-.433,11.92,11.92,0,0,1,2.848-.37c.707.1,1.417.537,2.144.667a2.617,2.617,0,0,1,.994.23c-.47.427-1.307.3-1.891.467q-1.916.525-3.828,1.06c-.52.147-1.16.44-1.137.98a32.171,32.171,0,0,1,5.729-1.521c1.6-.273,3.668-.767,5.222-.217q1.406.5,2.784,1.044c.407.157,1.907.35,1.931.8-1.611.1-3.278.63-4.865.65-1.29.02-2.984-1.194-3.925-2.041A32.659,32.659,0,0,1,72.2,77a5.822,5.822,0,0,0-4-2.394c.187.333.72.39,1.06.574,1.907,1.04,4.215,4.095,5.289,5.519.157.207.243.257.08.46a19.63,19.63,0,0,1-3.975-2.674c-.14.2.047.467.223.63a13.064,13.064,0,0,0,3.681,2.418c.437.193,1.11.293,1.337.764a9.29,9.29,0,0,1-3.771.447A9.178,9.178,0,0,1,69.1,81.466q-1.731-.99-3.461-1.977c.587.53,1.17,1.057,1.751,1.587-.69-.173-1.384-.353-2.074-.53.12.353.507.524.854.66,1.35.53,2.708,1.057,4.061,1.587-.26.42-.85.46-1.344.443q-3.5-.09-6.982-.437c-.187.2.183.444.46.467a85.412,85.412,0,0,0,9.467.19c.217-.007.517.09.464.293-.9.23-1.684.76-2.551,1.077a13.985,13.985,0,0,1-8.83.267c-.35-.107-.837-.16-.974.173a23.326,23.326,0,0,0,3.578,1.16l-4.565.664a3.441,3.441,0,0,0-2.678,1.284A3.7,3.7,0,0,0,57.8,88a13.04,13.04,0,0,1,3.851-.86,14.145,14.145,0,0,0,1.761-.157,10.922,10.922,0,0,0,1.667-.54,33.813,33.813,0,0,1,5.2-1.511,1.181,1.181,0,0,0-.64.393c.474.423,1.847-.874,2.3-1.15a10.4,10.4,0,0,1,4.555-1.264c-.924.8-2.151.9-3.168,1.5-1.234.734-2.581,1.214-3.8,1.937a1.1,1.1,0,0,0-.584.7c.557.057,1.027-.51,1.474-.764.59-.337,1.25-.57,1.871-.857a35.14,35.14,0,0,1,5.152-1.944,19.48,19.48,0,0,1,5.032-.747,18.776,18.776,0,0,1,3.551.213c1.5.3,2.4,1.461,3.448,2.574q6.477,6.892,12.958,13.785c-2.8-4.808-6.659-8.9-10.477-12.955-1.524-1.611-3.161-3.465-5.2-4.432a46.294,46.294,0,0,0-5.492-1.651,8.914,8.914,0,0,1-4.031-2.334c-1.491-1.687-1.8-4.075-2.231-6.289a3.373,3.373,0,0,0-.517-1.4c-.29.2-.267.62-.207.964q.365,2.161.86,4.295c-.347.067-.584-.327-.73-.647a18.477,18.477,0,0,0-3.2-4.378c-.77-.857-1.537-1.717-2.371-2.511.707,2.377,3.311,3.748,4.2,6.059a1.9,1.9,0,0,1-1.33-.767q-.97-1.015-1.944-2.027c-.1.1-.053.263,0,.393.934,2.007,3.044,3.134,4.775,4.522A15.67,15.67,0,0,1,77.446,79.205Z" transform="translate(-56.169 -51.749)" fill="#436801"/>
      <path id="Path_8326" data-name="Path 8326" d="M74.913,83.795a20.717,20.717,0,0,0-.577-2.631c-.137-.433-.3-.864-.433-1.3-.36-1.194-.457-2.4-.7-3.6-.27-1.334-.72-2.668-.907-3.995-.227-1.647-.033-3.231-.393-4.882a1.214,1.214,0,0,0-.243.854,23.221,23.221,0,0,0,.127,3.678,10.988,10.988,0,0,0,.43,2.047c.2.637.694,1.414.537,2.027-.487-.684-.88-1.631-1.31-2.374a8.013,8.013,0,0,1-1.04-3.171c-.153-1.541.217-2.974-.123-4.528l-.27.1a9.641,9.641,0,0,1-.087,2.768q-.345-1.636-.687-3.261a12.485,12.485,0,0,0-.687-2.421,3.958,3.958,0,0,0,.093,1.9c.8,3.858,1.661,7.879,3.7,11.327a1.637,1.637,0,0,1,.247.574c.1.807-.507-.023-.657-.243-.367-.547-.724-1.1-1.094-1.637a28.876,28.876,0,0,0-2.277-3,8.582,8.582,0,0,1-1.027-1.284,18.267,18.267,0,0,0-1.157-2.214,9.815,9.815,0,0,0,2.211,4.308c.544.6,1.15,1.107,1.677,1.737a14.95,14.95,0,0,1,1.2,1.767,16.594,16.594,0,0,1,1.477,2.438c.253.667.287,1.451.527,2.147a3.584,3.584,0,0,1,.29.967c-.467-.28-.757-1.074-1.117-1.547-.78-1.024-1.557-2.054-2.337-3.078-.317-.423-.78-.9-1.11-.7A42.275,42.275,0,0,1,72.649,81.2a15.939,15.939,0,0,1,2.424,4.622q.305,1.42.574,2.848c.077.417.614,1.827.347,1.994-.77-1.41-1.827-2.731-2.538-4.151a8.843,8.843,0,0,1-.45-4.2,28.965,28.965,0,0,1,.98-3.958,6.81,6.81,0,0,0-.263-4.388,2.1,2.1,0,0,0-.03,1.037,12.936,12.936,0,0,1-.817,6.6c-.087.19-.22.4-.413.313a22.257,22.257,0,0,1-.08-4.458c-.183-.057-.27.2-.293.413a15.1,15.1,0,0,0,.11,4.1c.07.453.3,1.1.113,1.457a12.845,12.845,0,0,1-1.934-3.238,11.856,11.856,0,0,1-.53-3.144q-.145-1.881-.283-3.765c-.077.7-.15,1.4-.227,2.1q-.285-1.015-.577-2.037a1.392,1.392,0,0,0-.033.984q.4,2.091.79,4.178c-.377-.1-.657-.614-.867-1.064q-1.476-3.171-2.788-6.419c-.207-.1-.193.317-.087.57q1.846,4.366,4.028,8.573c.1.183.173.487.023.507-.537-.727-1.214-1.26-1.787-1.931a18.36,18.36,0,0,1-1.724-2.364A19.353,19.353,0,0,1,64,70.893c-.09-.347-.267-.8-.537-.814a31.951,31.951,0,0,0,.847,3.6Q63.107,71.742,61.9,69.8c-.537-.86-1.194-1.821-1.971-1.974a4.856,4.856,0,0,0,.9,1.244,17.688,17.688,0,0,1,2.221,3.171c.283.517.547,1.05.87,1.534.85,1.257,1.907,2.384,2.768,3.655a21.131,21.131,0,0,0,1.344,1.984,10.853,10.853,0,0,0,1.374,1.084,13.7,13.7,0,0,1,2.784,3.675c-.907-.564-1.5-1.634-2.331-2.347-.99-.864-1.881-1.914-2.868-2.768-.217-.187-.474-.357-.687-.293.21.52.767.75,1.117,1.067.474.423.907.937,1.357,1.4a42.528,42.528,0,0,1,3.465,3.981,27.117,27.117,0,0,1,2.674,4.268,30.762,30.762,0,0,1,1.661,4.348c.487-.193.5-1.03.39-1.737-.217-1.5-.694-3-1.047-4.512a10.546,10.546,0,0,1-.313-4.395c.393-1.9,1.747-2.971,2.934-4.095a2.066,2.066,0,0,0,.647-.927c-.247-.2-.5-.033-.69.133q-1.18,1.045-2.294,2.2a.833.833,0,0,1,.08-.87,15.084,15.084,0,0,0,1.327-4.325c.193-.974.393-1.947.52-2.961-1.17,1.424-.88,4.218-1.927,5.782a2.225,2.225,0,0,1-.1-1.451q.205-1.205.407-2.414c-.107-.06-.19.037-.243.13-.84,1.511-.614,3.778-.72,5.792A14.762,14.762,0,0,1,74.913,83.795Z" transform="translate(-45.466 -63.104)" fill="#486e00"/>
    </g>
    <path id="Path_8327" data-name="Path 8327" d="M58.971,75.285q1.06,3.261,2.121,6.526c-2.344-1.417-1.7-5.265-3.575-7.319a26.7,26.7,0,0,1,1.507,5.725q-1.205-1.816-2.4-3.638a8.431,8.431,0,0,0,1.531,3.7,21.5,21.5,0,0,0,2.131,1.834,10.279,10.279,0,0,1,2.868,5.439c.437,1.857-.107,3.655.877,5.409.07-3.448,2.5-6.122,3.6-9.3a6.019,6.019,0,0,1,.627-1.507,9.89,9.89,0,0,1,1.831-1.574,1.967,1.967,0,0,0,.69-2.221,10.1,10.1,0,0,1-2.077,2.167q.56-3.836,1.124-7.666a1.4,1.4,0,0,0-.253-1.277c-2.037,3.991-1.087,9.3-3.274,13.195.123-1.581.243-3.161.37-4.738-.91,1.207-.95,2.9-1.154,4.455a12.669,12.669,0,0,1-1,3.871c-.907-.994-.463-2.618-.524-3.761a6.7,6.7,0,0,1,.517-3.741C65.34,79.1,66.54,77.8,67.447,76.1a3.042,3.042,0,0,0,.093-2.944,9.885,9.885,0,0,1-1.29,4.1,1.726,1.726,0,0,1-.057-.727A10.942,10.942,0,0,1,69.4,69.5a1.314,1.314,0,0,0-1.7.627,15.09,15.09,0,0,1-.957,1.777c-.007-.677-.013-1.357-.02-2.034-.337.037-.41.49-.413.844a20.168,20.168,0,0,1-2.031,8.523c-.777-1.564.193-4.642.614-6.152a15.4,15.4,0,0,0,.423-5.9,21.151,21.151,0,0,0-1.29,6.559c-1-2.674.727-5.369.844-8.156-.447-.2-.767.4-.86.877-.267,1.327-.53,2.648-.79,3.975a22.77,22.77,0,0,0-.117-4.125c-.957,1.531-.774,3.591-.433,5.472s.814,3.835.337,5.615q-1.21-5.157-2.434-10.31.235,2.891.47,5.775a20.153,20.153,0,0,1-2.024-3.094c-.07,1.507,1,2.858,1.791,4.188,2.214,3.728,2.481,8.186,2.684,12.424a16.493,16.493,0,0,1-1.681-5.135c-.1-1.09.03-2.181-.037-3.274a4.67,4.67,0,0,0-1.16-3.044,5.133,5.133,0,0,1,.05,4.225Q60.33,75.885,60,72.617c-.11,1.154-.217,2.307-.327,3.461q-.54-2.651-1.07-5.309C58.007,72.134,58.484,73.795,58.971,75.285Z" transform="translate(-26.153 -57.399)" fill="#436801"/>
    <path id="Path_8328" data-name="Path 8328" d="M67.634,82.562q3.391-.515,6.779-1.034c-1.777,2.081-5.469.824-7.8,2.341a26.819,26.819,0,0,1,5.892-.56q-1.986.9-3.978,1.784a8.376,8.376,0,0,0,3.9-.907,22.217,22.217,0,0,0,2.151-1.811,10.293,10.293,0,0,1,5.835-1.944c1.9-.13,3.585.694,5.479,0-3.391-.624-5.642-3.461-8.6-5.048a6.111,6.111,0,0,1-1.39-.87,9.906,9.906,0,0,1-1.257-2.057,1.973,1.973,0,0,0-2.081-1.044,10.046,10.046,0,0,1,1.8,2.4L67,71.468a1.385,1.385,0,0,0-1.3.047c3.608,2.654,9,2.571,12.488,5.362q-2.306-.56-4.618-1.13c1.047,1.09,2.714,1.4,4.215,1.861a12.744,12.744,0,0,1,3.655,1.614c-1.124.74-2.654.033-3.795-.09a6.69,6.69,0,0,1-3.611-1.117c-1.6-1.117-2.691-2.514-4.218-3.681a3.031,3.031,0,0,0-2.891-.567A9.94,9.94,0,0,1,70.768,75.7a1.7,1.7,0,0,1-.734-.06,10.955,10.955,0,0,1-6.426-4.3,1.316,1.316,0,0,0,.343,1.777,15.033,15.033,0,0,1,1.6,1.23l-2.007-.31c-.017.337.417.484.764.55a20.074,20.074,0,0,1,8.083,3.378c-1.671.517-4.548-.944-5.972-1.6a15.279,15.279,0,0,0-5.752-1.37,21.111,21.111,0,0,0,6.266,2.331c-2.8.557-5.178-1.587-7.913-2.154-.273.413.273.827.73,1q1.9.715,3.791,1.421a22.62,22.62,0,0,0-4.088-.55c1.357,1.19,3.418,1.344,5.332,1.314s3.915-.187,5.592.574q-5.282.37-10.567.734,2.891.235,5.779.474a20.849,20.849,0,0,1-3.385,1.5c1.474.31,2.981-.524,4.422-1.09,4.035-1.584,8.48-1.124,12.694-.64a16.373,16.373,0,0,1-5.339.827c-1.1-.077-2.144-.383-3.234-.494a4.664,4.664,0,0,0-3.191.654,5.112,5.112,0,0,1,4.175.637l-6.562-.4q1.686.435,3.365.88l-5.412.2C64.369,83.009,66.083,82.8,67.634,82.562Z" transform="translate(-48.894 -43.902)" fill="#436801"/>
    <path id="Path_8329" data-name="Path 8329" d="M65.228,70.742c-.427.15-.38.767-.237,1.2a44.681,44.681,0,0,0,4.051,8.95C65.391,78.681,65.8,72.713,62.277,70.3q1.28,2.636,2.564,5.275c-2.3-1.324-2.5-4.752-4.6-6.379q1.746,3.446,3.685,6.8c-3.061-1.2-3.641-5.612-6.526-7.2a27.671,27.671,0,0,0,5.055,6.769c1.827,1.611,4.181,2.874,5.068,5.138q-2.711-.835-5.379-1.8c1.631,1.8,4.508,1.594,6.7,2.654a6.126,6.126,0,0,1,3.284,4.271q-3.2-2.406-6.406-4.815,2.2,2.036,4.395,4.068c.023.31-.48.267-.744.1q-1.711-1.115-3.425-2.227c1.08,1.737,3.064,2.671,4.985,3.378a5.864,5.864,0,0,1,2.007,1.02c1.3,1.187,1.19,3.251,1.964,4.832.59-2.124-.3-4.378-1.454-6.252s-2.614-3.6-3.345-5.682c-.46-1.3-.614-2.688-.977-4.021a5.974,5.974,0,0,0-2.127-3.448c-.2-.137-.534-.207-.61.017a39.541,39.541,0,0,1,2.371,4.472c.3.654.554,1.477.1,2.031Q67.062,75.013,65.228,70.742Z" transform="translate(-32.95 -49.811)" fill="#597d10"/>
    <path id="Path_8330" data-name="Path 8330" d="M72.994,84.1a30.077,30.077,0,0,1,7.082-1.691,11.89,11.89,0,0,1,7.042,1.407c.71.424,1.647.94,2.277.4a18.066,18.066,0,0,0-5.359-2.034c-2.047-.427-4.378-.607-5.732-2.2-1.711-2-1.144-5.492-3.281-7.032q.745,2.661,1.494,5.322c-2.017-2.511-4.1-5.078-6.879-6.7q2.4,2.576,4.785,5.148A11.779,11.779,0,0,1,70.353,73.8a3.519,3.519,0,0,0,1.937,2.668c.987.58,2.107.917,3.074,1.534,1.3.83,2.261,2.127,3.6,2.884a6.477,6.477,0,0,1-5.852-1.347,13.639,13.639,0,0,0-1.461-1.284,1.911,1.911,0,0,0-1.837-.247,16.143,16.143,0,0,1,4.035,2.714c-3.975.7-7.186-3.651-11.2-3.991q3.581,2.086,7.259,4.015a18.9,18.9,0,0,1-7.062-1.821,6.215,6.215,0,0,0-3.184-.97L63.7,80.007c-2.031-.417-4.055-.837-6.085-1.257.343.9,1.457,1.19,2.411,1.35l8.99,1.517q-4.286.065-8.57.133c2.594.914,5.452,1.591,8.076.754a22.954,22.954,0,0,1,2.571-.887,9.078,9.078,0,0,1,2.171-.08q2.531.115,5.058.227a19.077,19.077,0,0,1-7.639.624,4.292,4.292,0,0,0,2.691.8,5.719,5.719,0,0,0-3.391.967C70.836,84.758,72,84.435,72.994,84.1Z" transform="translate(-47.958 -43.3)" fill="#597d10"/>
    <path id="Path_8331" data-name="Path 8331" d="M68.384,82.778A8.465,8.465,0,0,1,64.349,84.6a36.339,36.339,0,0,0-7.066,2.751A22.166,22.166,0,0,0,64.7,85.039,7.96,7.96,0,0,1,61.358,87.7c1.831.2,3.224-1.494,4.612-2.711,2.554-2.227,5.979-3.118,9.27-3.938,3.628-.907,7.659-1.767,10.947.017-.774-1.734-3.144-2.017-4.992-1.607s-3.715,1.26-5.565.85c-2-.443-3.375-2.207-4.745-3.728s-3.241-3-5.249-2.6a8.222,8.222,0,0,1,6.539,5.085l-4.842-2.134a4.8,4.8,0,0,0,3.391,2.064,9.851,9.851,0,0,1,3.858,1.294c-1.994,1.44-4.805,1.164-7.036.123s-4.085-2.724-6.125-4.1c-.223-.15-.654-.2-.65.067a35.447,35.447,0,0,0,4.2,3.328q-3.146-.3-6.292-.6c2.581,2.424,7.269.447,10.077,2.6q-4.632,1.09-9.273,2.181C62.238,85.229,65.416,82.024,68.384,82.778Z" transform="translate(-43.642 -37.875)" fill="#436801"/>
  </g>
</svg>
