<svg xmlns="http://www.w3.org/2000/svg" xmlns:xlink="http://www.w3.org/1999/xlink" width="24" height="24" viewBox="0 0 24 24">
  <defs>
    <clipPath id="clip-path">
      <rect id="Rectangle_4" data-name="Rectangle 4" width="24" height="24" transform="translate(573 3070)" fill="#fff"/>
    </clipPath>
  </defs>
  <g id="Mask_Group_1" data-name="Mask Group 1" transform="translate(-573 -3070)" clip-path="url(#clip-path)">
    <g id="instagram" transform="translate(573 3070)">
      <path id="Path_1" data-name="Path 1" d="M17.406,15.3A2.109,2.109,0,1,1,15.3,13.188,2.109,2.109,0,0,1,17.406,15.3Zm0,0" transform="translate(-3.297 -3.297)" fill="#fff"/>
      <path id="Path_2" data-name="Path 2" d="M17.438,7.5H10.313A2.816,2.816,0,0,0,7.5,10.313v7.125a2.816,2.816,0,0,0,2.813,2.813h7.125a2.816,2.816,0,0,0,2.813-2.812V10.313A2.816,2.816,0,0,0,17.438,7.5Zm-3.562,9.891a3.516,3.516,0,1,1,3.516-3.516A3.52,3.52,0,0,1,13.875,17.391Zm4.031-6.844a.7.7,0,1,1,.7-.7A.7.7,0,0,1,17.906,10.547Zm0,0" transform="translate(-1.875 -1.875)" fill="#fff"/>
      <path id="Path_3" data-name="Path 3" d="M17.672,0H6.328A6.335,6.335,0,0,0,0,6.328V17.672A6.335,6.335,0,0,0,6.328,24H17.672A6.335,6.335,0,0,0,24,17.672V6.328A6.335,6.335,0,0,0,17.672,0Zm2.109,15.563a4.224,4.224,0,0,1-4.219,4.219H8.438a4.224,4.224,0,0,1-4.219-4.219V8.438A4.224,4.224,0,0,1,8.438,4.219h7.125a4.224,4.224,0,0,1,4.219,4.219Zm0,0" fill="#fff"/>
    </g>
  </g>
</svg>
