<svg id="logo_playstore" xmlns="http://www.w3.org/2000/svg" xmlns:xlink="http://www.w3.org/1999/xlink" width="130" height="39" viewBox="0 0 130 39">
  <defs>
    <linearGradient id="linear-gradient" x1="0.919" y1="0.988" x2="-0.385" y2="0.32" gradientUnits="objectBoundingBox">
      <stop offset="0" stop-color="#00a0ff"/>
      <stop offset="0.007" stop-color="#00a1ff"/>
      <stop offset="0.26" stop-color="#00beff"/>
      <stop offset="0.512" stop-color="#00d2ff"/>
      <stop offset="0.76" stop-color="#00dfff"/>
      <stop offset="1" stop-color="#00e3ff"/>
    </linearGradient>
    <linearGradient id="linear-gradient-2" x1="1.082" y1="0.625" x2="-1.301" y2="0.625" gradientUnits="objectBoundingBox">
      <stop offset="0" stop-color="#ffe000"/>
      <stop offset="0.409" stop-color="#ffbd00"/>
      <stop offset="0.775" stop-color="orange"/>
      <stop offset="1" stop-color="#ff9c00"/>
    </linearGradient>
    <linearGradient id="linear-gradient-3" x1="0.864" y1="-0.096" x2="-0.497" y2="-1.865" gradientUnits="objectBoundingBox">
      <stop offset="0" stop-color="#ff3a44"/>
      <stop offset="1" stop-color="#c31162"/>
    </linearGradient>
    <linearGradient id="linear-gradient-4" x1="-0.185" y1="2.624" x2="0.423" y2="1.834" gradientUnits="objectBoundingBox">
      <stop offset="0" stop-color="#32a071"/>
      <stop offset="0.068" stop-color="#2da771"/>
      <stop offset="0.476" stop-color="#15cf74"/>
      <stop offset="0.801" stop-color="#06e775"/>
      <stop offset="1" stop-color="#00f076"/>
    </linearGradient>
  </defs>
  <path id="Path_80" data-name="Path 80" d="M130,35.1a3.8,3.8,0,0,1-3.7,3.9H3.7A3.8,3.8,0,0,1,0,35.1V3.9A3.868,3.868,0,0,1,3.7,0H126.2a3.8,3.8,0,0,1,3.7,3.9l.1,31.2"/>
  <g id="Group_7" data-name="Group 7">
    <path id="Path_81" data-name="Path 81" d="M45.7,10.1A2.489,2.489,0,0,1,45,12a2.723,2.723,0,0,1-2.1.9,2.878,2.878,0,0,1-2.1-.9,2.94,2.94,0,0,1-.9-2.2,2.94,2.94,0,0,1,.9-2.2,2.878,2.878,0,0,1,2.1-.9,5.019,5.019,0,0,1,1.2.2,3.49,3.49,0,0,1,.9.6l-.5.5a1.865,1.865,0,0,0-1.6-.7,2.452,2.452,0,0,0-1.6.6,2.413,2.413,0,0,0-.7,1.7,2.193,2.193,0,0,0,.7,1.7,2.433,2.433,0,0,0,3.2,0,2.2,2.2,0,0,0,.5-1.2H42.9V9.7h2.8C45.6,9.8,45.7,10,45.7,10.1Z" fill="#fff" stroke="#fff" stroke-miterlimit="10" stroke-width="0.2"/>
    <path id="Path_82" data-name="Path 82" d="M50.1,7.7H47.5V9.5h2.4v.7H47.5V12h2.6v.7H46.7V7h3.4Z" fill="#fff" stroke="#fff" stroke-miterlimit="10" stroke-width="0.2"/>
    <path id="Path_83" data-name="Path 83" d="M53.2,12.8h-.7V7.7H50.9V7h4v.7H53.3v5.1Z" fill="#fff" stroke="#fff" stroke-miterlimit="10" stroke-width="0.2"/>
    <path id="Path_84" data-name="Path 84" d="M57.7,12.8V7h.7v5.8Z" fill="#fff" stroke="#fff" stroke-miterlimit="10" stroke-width="0.2"/>
    <path id="Path_85" data-name="Path 85" d="M61.8,12.8H61V7.7H59.4V7h4v.7H61.8v5.1Z" fill="#fff" stroke="#fff" stroke-miterlimit="10" stroke-width="0.2"/>
    <path id="Path_86" data-name="Path 86" d="M70.9,12a2.878,2.878,0,0,1-2.1.9,2.723,2.723,0,0,1-2.1-.9,2.878,2.878,0,0,1-.9-2.1,2.723,2.723,0,0,1,.9-2.1,2.9,2.9,0,0,1,4.2,0,2.878,2.878,0,0,1,.9,2.1A3.333,3.333,0,0,1,70.9,12Zm-3.7-.5a2.271,2.271,0,0,0,1.6.6,2.452,2.452,0,0,0,1.6-.6A2.352,2.352,0,0,0,71,9.8a2.523,2.523,0,0,0-.6-1.7,2.271,2.271,0,0,0-1.6-.6,2.452,2.452,0,0,0-1.6.6,2.352,2.352,0,0,0-.6,1.7A2.352,2.352,0,0,0,67.2,11.5Z" fill="#fff" stroke="#fff" stroke-miterlimit="10" stroke-width="0.2"/>
    <path id="Path_87" data-name="Path 87" d="M72.8,12.8V7h.9l2.8,4.5h0V7h.7v5.8h-.8L73.5,8h0v4.7h-.7Z" fill="#fff" stroke="#fff" stroke-miterlimit="10" stroke-width="0.2"/>
  </g>
  <path id="Path_88" data-name="Path 88" d="M65.6,21.2a4.1,4.1,0,1,0,4.1,4.1A3.995,3.995,0,0,0,65.6,21.2Zm0,6.6a2.509,2.509,0,1,1,2.3-2.5A2.376,2.376,0,0,1,65.6,27.8Zm-9-6.6a4.1,4.1,0,1,0,4.1,4.1A3.938,3.938,0,0,0,56.6,21.2Zm0,6.6a2.509,2.509,0,1,1,2.3-2.5A2.315,2.315,0,0,1,56.6,27.8ZM46,22.4v1.7h4.2a3.44,3.44,0,0,1-.9,2.2,4.35,4.35,0,0,1-3.2,1.3,4.6,4.6,0,0,1,0-9.2,4.207,4.207,0,0,1,3.1,1.2l1.2-1.2A5.981,5.981,0,0,0,46,16.6,6.532,6.532,0,0,0,39.5,23,6.466,6.466,0,0,0,46,29.4a5.585,5.585,0,0,0,4.4-1.8,5.967,5.967,0,0,0,1.5-4.1,3.75,3.75,0,0,0-.1-1.1Zm43.6,1.4a3.794,3.794,0,0,0-3.5-2.6,3.953,3.953,0,0,0-3.9,4.1,4,4,0,0,0,4.1,4.1,3.86,3.86,0,0,0,3.4-1.8l-1.4-.9a2.305,2.305,0,0,1-2,1.1,2.1,2.1,0,0,1-2-1.2l5.5-2.3ZM84,25.2a2.254,2.254,0,0,1,2.1-2.4,1.609,1.609,0,0,1,1.5.9Zm-4.4,3.9h1.8v-12H79.6Zm-3-7h0a2.991,2.991,0,0,0-2.2-.9,4.105,4.105,0,0,0,0,8.2,2.826,2.826,0,0,0,2.2-.9h.1V29c0,1.6-.8,2.4-2.2,2.4a2.331,2.331,0,0,1-2.1-1.5l-1.6.7A3.755,3.755,0,0,0,74.4,33c2.1,0,3.9-1.2,3.9-4.3V21.3H76.6v.8Zm-2,5.7a2.509,2.509,0,0,1,0-5,2.362,2.362,0,0,1,2.2,2.5A2.432,2.432,0,0,1,74.6,27.8ZM98,17.1H93.7v12h1.8V24.5H98a3.705,3.705,0,1,0,0-7.4Zm.1,5.8H95.5V18.8h2.6a2.051,2.051,0,1,1,0,4.1Zm11.1-1.7A3.5,3.5,0,0,0,106,23l1.6.7a1.624,1.624,0,0,1,1.6-.9c.9,0,1.9.6,1.9,1.5v.1a3.636,3.636,0,0,0-1.9-.5c-1.7,0-3.5.9-3.5,2.7a2.749,2.749,0,0,0,3,2.6A2.426,2.426,0,0,0,111,28h.1v.9h1.7V24.3C112.8,22.4,111.2,21.2,109.2,21.2Zm-.2,6.6c-.6,0-1.4-.3-1.4-1,0-.9,1-1.3,1.9-1.3a3.1,3.1,0,0,1,1.6.4A2.149,2.149,0,0,1,109,27.8Zm10.2-6.4-2.1,5.2H117l-2.1-5.2H113l3.2,7.3-1.8,4.1h1.9l4.9-11.4h-2ZM103,29.1h1.8v-12H103Z" fill="#fff"/>
  <g id="Group_9" data-name="Group 9">
    <path id="Path_89" data-name="Path 89" d="M10,7.5a2.588,2.588,0,0,0-.4,1.4V30.2a2.588,2.588,0,0,0,.4,1.4l.1.1L22,19.8v-.2L10,7.5Z" fill="url(#linear-gradient)"/>
    <path id="Path_90" data-name="Path 90" d="M26,23.6l-4-4v-.2l4-4,.1.1,4.7,2.7c1.3.8,1.3,2,0,2.8L26,23.6Z" fill="url(#linear-gradient-2)"/>
    <path id="Path_91" data-name="Path 91" d="M26.1,23.6,22,19.5l-12,12c.4.5,1.2.5,2,.1l14.1-8" fill="url(#linear-gradient-3)"/>
    <path id="Path_92" data-name="Path 92" d="M26.1,15.4,12,7.4a1.624,1.624,0,0,0-2,.1l12,12Z" fill="url(#linear-gradient-4)"/>
    <g id="Group_8" data-name="Group 8">
      <path id="Path_93" data-name="Path 93" d="M26,23.5,12,31.4c-.8.4-1.5.4-1.9,0h0l-.1.1h0l.1.1h0c.4.4,1.1.4,1.9,0l14-8.1Z" opacity="0.2"/>
      <path id="Path_94" data-name="Path 94" d="M10,31.4A1.955,1.955,0,0,1,9.6,30v.1a2.588,2.588,0,0,0,.4,1.4v-.1Z" opacity="0.12"/>
    </g>
    <path id="Path_95" data-name="Path 95" d="M30.8,20.8,26,23.5l.1.1,4.7-2.7a1.662,1.662,0,0,0,1-1.4h0C31.8,20,31.4,20.4,30.8,20.8Z" opacity="0.12"/>
    <path id="Path_96" data-name="Path 96" d="M12,7.6,30.8,18.3a1.618,1.618,0,0,1,1,1.2h0a1.662,1.662,0,0,0-1-1.4L12,7.4c-1.3-.8-2.4-.1-2.4,1.4V9C9.6,7.5,10.7,6.8,12,7.6Z" fill="#fff" opacity="0.25"/>
  </g>
</svg>
