<svg id="Group_611" data-name="Group 611" xmlns="http://www.w3.org/2000/svg" width="29.1" height="42.681" viewBox="0 0 29.1 42.681">
  <path id="Path_17" data-name="Path 17" d="M58.509,431.936A14.64,14.64,0,0,1,44,417.246V403.728a14.572,14.572,0,0,1,12.977-14.465,1.415,1.415,0,1,1,.3,2.814,11.736,11.736,0,0,0-10.446,11.651v13.527a11.719,11.719,0,1,0,23.437.167,1.441,1.441,0,0,1,1.335-1.448,1.415,1.415,0,0,1,1.5,1.412,14.565,14.565,0,0,1-14.591,14.55" transform="translate(-44 -389.255)" fill="#fff"/>
  <path id="Path_18" data-name="Path 18" d="M71.8,463.889a9.843,9.843,0,0,0,9.832-9.832V447a1.415,1.415,0,1,0-2.831,0v7.053a7,7,0,1,1-14,0V440.4a1.415,1.415,0,1,0-2.83,0v13.658a9.843,9.843,0,0,0,9.831,9.832" transform="translate(-57.251 -425.925)" fill="#fff"/>
  <path id="Path_19" data-name="Path 19" d="M88.751,445.085a1.415,1.415,0,0,0,1.415-1.415V430.012a5.114,5.114,0,1,0-10.228,0v7.053a1.415,1.415,0,1,0,2.83,0v-7.053a2.284,2.284,0,1,1,4.568,0V443.67a1.414,1.414,0,0,0,1.414,1.415" transform="translate(-70.502 -415.538)" fill="#fff"/>
  <path id="Path_20" data-name="Path 20" d="M88.664,392.06h1.4v-2.8H88.656a1.4,1.4,0,0,0-.982.41l-.991.991.991.992a1.4,1.4,0,0,0,.982.41h.008Z" transform="translate(-75.475 -389.256)" fill="#fff"/>
  <path id="Path_21" data-name="Path 21" d="M146.842,492.11v-1.423H144v1.432h0a1.415,1.415,0,0,0,.415.994l1,1.006,1.006-1.006a1.419,1.419,0,0,0,.415-.994Z" transform="translate(-117.742 -464.053)" fill="#fff"/>
  <path id="Path_22" data-name="Path 22" d="M128.907,465.465v-1.417h-2.831v1.425a1.418,1.418,0,0,0,.414.991l1,1,1-1a1.407,1.407,0,0,0,.414-.991h0Z" transform="translate(-104.524 -444.409)" fill="#fff"/>
  <path id="Path_23" data-name="Path 23" d="M64.8,440.271v-1.417H61.97v1.424h0a1.409,1.409,0,0,0,.414.991l1,1,1-1a1.408,1.408,0,0,0,.413-.991h0Z" transform="translate(-57.251 -425.83)" fill="#fff"/>
  <path id="Path_24" data-name="Path 24" d="M108.1,490.968v1.419h2.834V490.96a1.421,1.421,0,0,0-.414-.993l-1-1-1,1a1.409,1.409,0,0,0-.414.993h0Z" transform="translate(-91.265 -462.783)" fill="#fff"/>
  <path id="Path_25" data-name="Path 25" d="M79.939,465.881V467.3h2.829v-1.425h0a1.4,1.4,0,0,0-.413-.989l-1-1-1,1a1.4,1.4,0,0,0-.413.989h0Z" transform="translate(-70.502 -444.286)" fill="#fff"/>
</svg>
