<svg xmlns="http://www.w3.org/2000/svg" xmlns:xlink="http://www.w3.org/1999/xlink" width="24" height="24" viewBox="0 0 24 24">
  <defs>
    <clipPath id="clip-path">
      <rect id="Rectangle_8" data-name="Rectangle 8" width="24" height="24" transform="translate(890 3070)" fill="#fff"/>
    </clipPath>
  </defs>
  <g id="Mask_Group_5" data-name="Mask Group 5" transform="translate(-890 -3070)" clip-path="url(#clip-path)">
    <g id="email" transform="translate(890 3073.563)">
      <g id="Group_3" data-name="Group 3" transform="translate(1.229 9.434)">
        <g id="Group_2" data-name="Group 2">
          <path id="Path_5" data-name="Path 5" d="M15.961,17.328l-2.01,2.017a2.225,2.225,0,0,1-3.082,0l-2.01-2.017-7.22,7.243a2.089,2.089,0,0,0,.88.2H22.3a2.087,2.087,0,0,0,.88-.2Z" transform="translate(-1.639 -17.328)" fill="#fff"/>
        </g>
      </g>
      <g id="Group_5" data-name="Group 5" transform="translate(1.229)">
        <g id="Group_4" data-name="Group 4">
          <path id="Path_6" data-name="Path 6" d="M22.3,4.75H2.519a2.088,2.088,0,0,0-.88.2l7.715,7.74h0l2.508,2.517a.844.844,0,0,0,1.091,0l2.508-2.516v0h0l7.714-7.74A2.087,2.087,0,0,0,22.3,4.75Z" transform="translate(-1.639 -4.75)" fill="#fff"/>
        </g>
      </g>
      <g id="Group_7" data-name="Group 7" transform="translate(0 1.182)">
        <g id="Group_6" data-name="Group 6">
          <path id="Path_7" data-name="Path 7" d="M.224,6.326A2.083,2.083,0,0,0,0,7.253V19.91a2.083,2.083,0,0,0,.224.928l7.232-7.255Z" transform="translate(0 -6.326)" fill="#fff"/>
        </g>
      </g>
      <g id="Group_9" data-name="Group 9" transform="translate(16.544 1.182)">
        <g id="Group_8" data-name="Group 8">
          <path id="Path_8" data-name="Path 8" d="M29.29,6.326l-7.232,7.256,7.232,7.256a2.084,2.084,0,0,0,.224-.928V7.253A2.084,2.084,0,0,0,29.29,6.326Z" transform="translate(-22.058 -6.326)" fill="#fff"/>
        </g>
      </g>
    </g>
  </g>
</svg>
