<svg xmlns="http://www.w3.org/2000/svg" xmlns:xlink="http://www.w3.org/1999/xlink" width="44" height="44" viewBox="0 0 44 44">
  <defs>
    <clipPath id="clip-path">
      <rect id="Rectangle_18721" data-name="Rectangle 18721" width="44" height="44" transform="translate(411 1382)" fill="#fff"/>
    </clipPath>
  </defs>
  <g id="Mask_Group_27" data-name="Mask Group 27" transform="translate(-411 -1382)" clip-path="url(#clip-path)">
    <g id="restaurant_1_" data-name="restaurant (1)" transform="translate(411 1382)">
      <rect id="Rectangle_18722" data-name="Rectangle 18722" width="34.065" height="19.871" transform="translate(4.968 23.419)" fill="#ececec"/>
      <rect id="Rectangle_18723" data-name="Rectangle 18723" width="34.065" height="2.129" transform="translate(4.968 41.161)" fill="#b6c1ce"/>
      <path id="Path_8268" data-name="Path 8268" d="M36.9,7.806H7.1L2.839,20.581V22.71a2.129,2.129,0,0,0,4.258,0,2.129,2.129,0,0,0,4.258,0,2.129,2.129,0,1,0,4.258,0,2.129,2.129,0,0,0,4.258,0,2.129,2.129,0,0,0,4.258,0,2.129,2.129,0,0,0,4.258,0,2.129,2.129,0,1,0,4.258,0,2.129,2.129,0,1,0,4.258,0,2.129,2.129,0,1,0,4.258,0V20.581Z" fill="#fb5968"/>
      <path id="Path_8269" data-name="Path 8269" d="M4.968,24.839A2.129,2.129,0,0,0,7.1,22.71a2.129,2.129,0,0,0,4.258,0,2.129,2.129,0,1,0,4.258,0,2.129,2.129,0,0,0,4.258,0,2.129,2.129,0,0,0,4.258,0,2.129,2.129,0,0,0,4.258,0,2.129,2.129,0,1,0,4.258,0,2.129,2.129,0,1,0,4.258,0,2.129,2.129,0,1,0,4.258,0V20.581H2.839V22.71A2.129,2.129,0,0,0,4.968,24.839Z" fill="#cd2c5a"/>
      <circle id="Ellipse_401" data-name="Ellipse 401" cx="8.516" cy="8.516" r="8.516" transform="translate(13.484 0.71)" fill="#ffeaa7"/>
      <g id="Group_10303" data-name="Group 10303">
        <path id="Path_8270" data-name="Path 8270" d="M11.355,37.613c-.043,0-.084.01-.126.013a2.089,2.089,0,0,0-2.5-1.367,2.1,2.1,0,0,0-3.26,0,2.089,2.089,0,0,0-2.5,1.367c-.043,0-.083-.013-.126-.013A2.129,2.129,0,0,0,.71,39.742V43.29H13.484V39.742A2.129,2.129,0,0,0,11.355,37.613Z" fill="#92e0c0"/>
        <path id="Path_8271" data-name="Path 8271" d="M41.161,37.613c-.043,0-.084.01-.126.013a2.089,2.089,0,0,0-2.5-1.367,2.1,2.1,0,0,0-3.26,0,2.089,2.089,0,0,0-2.5,1.367c-.043,0-.083-.013-.126-.013a2.129,2.129,0,0,0-2.129,2.129V43.29H43.29V39.742A2.129,2.129,0,0,0,41.161,37.613Z" fill="#92e0c0"/>
      </g>
      <g id="Group_10304" data-name="Group 10304">
        <rect id="Rectangle_18724" data-name="Rectangle 18724" width="12.774" height="2.839" transform="translate(30.516 40.452)" fill="#d3a06c"/>
        <rect id="Rectangle_18725" data-name="Rectangle 18725" width="12.774" height="2.839" transform="translate(0.71 40.452)" fill="#d3a06c"/>
      </g>
      <rect id="Rectangle_18726" data-name="Rectangle 18726" width="11.355" height="15.613" transform="translate(16.323 27.677)" fill="#eabd8c"/>
      <rect id="Rectangle_18727" data-name="Rectangle 18727" width="11.355" height="2.129" transform="translate(16.323 41.161)" fill="#d3a06c"/>
      <g id="Group_10305" data-name="Group 10305">
        <rect id="Rectangle_18728" data-name="Rectangle 18728" width="4.258" height="4.258" transform="translate(8.516 28.387)" fill="#39c3fc"/>
        <rect id="Rectangle_18729" data-name="Rectangle 18729" width="4.258" height="4.258" transform="translate(31.226 28.387)" fill="#39c3fc"/>
      </g>
      <path id="Path_8272" data-name="Path 8272" d="M41.492,36.922a2.814,2.814,0,0,0-1.75-1.348V25.448a2.836,2.836,0,0,0,2.129-2.738V20.466L37.415,7.1H30.968a9.215,9.215,0,0,0-17.936,0H6.585L2.129,20.466V22.71a2.836,2.836,0,0,0,2.129,2.738V35.575a2.811,2.811,0,0,0-1.75,1.348A2.843,2.843,0,0,0,0,39.742V44H44V39.742A2.843,2.843,0,0,0,41.492,36.922Zm-1.128.937.175.5.53-.026a.43.43,0,0,0,.092-.012,1.421,1.421,0,0,1,1.419,1.419H31.226a1.415,1.415,0,0,1,1.392-1.419l.649.038.175-.5a1.417,1.417,0,0,1,1.333-.956,1.456,1.456,0,0,1,.332.045l.43.1.282-.34a1.435,1.435,0,0,1,2.169,0l.282.34.43-.1a1.456,1.456,0,0,1,.332-.045A1.416,1.416,0,0,1,40.364,37.859Zm-1.332-13.73a1.421,1.421,0,0,1-1.419-1.419V21.29h2.839V22.71A1.421,1.421,0,0,1,39.032,24.129ZM18.452,9.935a1.421,1.421,0,0,1-1.419-1.419c0-1.061.889-2.839,1.419-2.839s1.419,1.778,1.419,2.839A1.421,1.421,0,0,1,18.452,9.935Zm.849,8.112-.1,1.824H16.406l.341-3.071A9.2,9.2,0,0,0,19.3,18.047ZM27.253,16.8l.341,3.071H24.8l-.1-1.824A9.2,9.2,0,0,0,27.253,16.8Zm5.993,3.071L31.354,8.516H33.5l2.524,11.355Zm-1.439,0H29.022L28.56,15.7a9.251,9.251,0,0,0,2.031-3.137ZM23.294,18.35l.084,1.521H20.621l.084-1.521a8.306,8.306,0,0,0,2.589,0Zm-8.317,1.521H12.192l1.217-7.3A9.247,9.247,0,0,0,15.44,15.7Zm-4.224,0H7.981L10.5,8.516h2.142ZM7.806,21.29h2.839V22.71a1.419,1.419,0,1,1-2.839,0Zm4.258,0H14.9V22.71a1.419,1.419,0,1,1-2.839,0Zm4.258,0h2.839V22.71a1.419,1.419,0,1,1-2.839,0Zm4.258,0h2.839V22.71a1.419,1.419,0,1,1-2.839,0Zm4.258,0h2.839V22.71a1.419,1.419,0,1,1-2.839,0Zm4.258,0h2.839V22.71a1.419,1.419,0,1,1-2.839,0Zm4.258,0h2.839V22.71a1.419,1.419,0,1,1-2.839,0Zm6.822-1.419h-2.7L34.949,8.516h1.443ZM22,1.419a7.8,7.8,0,0,1,4.258,14.341V11.254a2.836,2.836,0,0,0,2.129-2.738V4.968H26.968V8.516a1.415,1.415,0,0,1-.71,1.222V4.968H24.839v4.77a1.415,1.415,0,0,1-.71-1.222V4.968H22.71V8.516a2.836,2.836,0,0,0,2.129,2.738V16.49a7.7,7.7,0,0,1-5.677,0V11.254A2.836,2.836,0,0,0,21.29,8.516c0-1.463-1.106-4.258-2.839-4.258s-2.839,2.8-2.839,4.258a2.836,2.836,0,0,0,2.129,2.738v4.506A7.8,7.8,0,0,1,22,1.419ZM7.608,8.516H9.051L6.528,19.871h-2.7ZM3.548,22.71V21.29H6.387V22.71a1.419,1.419,0,1,1-2.839,0ZM2.812,38.323l.649.038.175-.5A1.417,1.417,0,0,1,4.968,36.9a1.456,1.456,0,0,1,.332.045l.43.1.282-.34a1.435,1.435,0,0,1,2.169,0l.282.34.43-.1a1.456,1.456,0,0,1,.332-.045,1.416,1.416,0,0,1,1.332.956l.175.5.53-.026a.43.43,0,0,0,.092-.012,1.421,1.421,0,0,1,1.419,1.419H1.419A1.415,1.415,0,0,1,2.812,38.323ZM1.419,42.581V41.161H12.774v1.419Zm25.548,0H17.032V28.387h9.935Zm2.839,0H28.387V26.968H15.613V42.581H14.194V39.742a2.843,2.843,0,0,0-2.508-2.82A2.788,2.788,0,0,0,8.975,35.5a2.9,2.9,0,0,0-3.3-.324V25.449A2.84,2.84,0,0,0,7.1,24.585a2.834,2.834,0,0,0,4.258,0,2.835,2.835,0,0,0,4.258,0,2.835,2.835,0,0,0,4.258,0,2.835,2.835,0,0,0,4.258,0,2.835,2.835,0,0,0,4.258,0,2.835,2.835,0,0,0,4.258,0,2.835,2.835,0,0,0,4.258,0,2.835,2.835,0,0,0,1.419.864v9.723a2.9,2.9,0,0,0-3.3.324,2.788,2.788,0,0,0-2.71,1.426,2.842,2.842,0,0,0-2.508,2.819Zm1.419,0V41.161H42.581v1.419Z"/>
      <rect id="Rectangle_18730" data-name="Rectangle 18730" width="1.419" height="1.419" transform="translate(18.452 34.774)"/>
      <path id="Path_8273" data-name="Path 8273" d="M7.806,33.355h5.677V27.677H7.806ZM9.226,29.1h2.839v2.839H9.226Z"/>
      <path id="Path_8274" data-name="Path 8274" d="M36.194,27.677H30.516v5.677h5.677Zm-1.419,4.258H31.935V29.1h2.839Z"/>
    </g>
  </g>
</svg>
