<svg xmlns="http://www.w3.org/2000/svg" width="332.14" height="331.588" viewBox="0 0 332.14 331.588">
  <g id="Group_10379" data-name="Group 10379" transform="translate(-598 -5237.5)">
    <g id="Group_10376" data-name="Group 10376" transform="translate(-126.292 5179.254)">
      <g id="Group_10373" data-name="Group 10373" transform="translate(724.292 58.246)">
        <rect id="Rectangle_18734" data-name="Rectangle 18734" width="234.468" height="234.468" rx="24.22" transform="translate(0 165.794) rotate(-45)" fill="rgba(245,80,76,0.86)"/>
      </g>
      <rect id="Rectangle_18735" data-name="Rectangle 18735" width="221.726" height="221.726" rx="22.903" transform="translate(742.312 224.04) rotate(-45)" fill="rgba(245,80,76,0.86)" stroke="#fff" stroke-miterlimit="10" stroke-width="0.781"/>
      <g id="Group_10374" data-name="Group 10374" transform="translate(775.371 204.458)">
        <path id="Path_8332" data-name="Path 8332" d="M769.441,166.316c0,2.721-7.4,2.721-7.4,5.442s7.4,2.721,7.4,5.442-7.4,2.719-7.4,5.44,7.4,2.721,7.4,5.442-7.4,2.721-7.4,5.442,7.4,2.726,7.4,5.451-7.4,2.726-7.4,5.452" transform="translate(-762.046 -166.316)" fill="rgba(245,80,76,0.86)" stroke="#fff" stroke-miterlimit="10" stroke-width="0.781"/>
      </g>
      <g id="Group_10375" data-name="Group 10375" transform="translate(792.232 221.319)">
        <path id="Path_8333" data-name="Path 8333" d="M781.9,178.779c0,2.721-7.4,2.721-7.4,5.441s7.4,2.721,7.4,5.442-7.4,2.719-7.4,5.44,7.4,2.721,7.4,5.44-7.4,2.722-7.4,5.443,7.4,2.726,7.4,5.451-7.4,2.726-7.4,5.451" transform="translate(-774.509 -178.779)" fill="rgba(245,80,76,0.86)" stroke="#fff" stroke-miterlimit="10" stroke-width="0.781"/>
      </g>
    </g>
  </g>
</svg>
