<svg xmlns="http://www.w3.org/2000/svg" width="157.537" height="72.728" viewBox="0 0 157.537 72.728">
  <g id="Group_8666" data-name="Group 8666" transform="translate(0.03 -0.015)">
    <g id="Layer_1" data-name="Layer 1" transform="translate(-0.03 0.015)">
      <path id="Path_1" data-name="Path 1" d="M538.532,1070.963l-26.815-26.815a8.348,8.348,0,0,0-13.164,1.778h0a62.591,62.591,0,0,0,0,61.888h0a8.418,8.418,0,0,0,13.223,1.838l26.755-26.877a8.349,8.349,0,0,0,0-11.811Zm-1.109,9.52L511.865,1108.5a6.522,6.522,0,0,1-10.322-.913,60.771,60.771,0,0,1-2.754-60.008A6.522,6.522,0,0,1,509,1045.722l28.017,25.559a6.522,6.522,0,0,1,.423,9.2Z" transform="translate(-384.318 -1040.506)" fill="#fff"/>
      <path id="Path_2" data-name="Path 2" d="M537.179,1067.741l-27.728-27.728a8.638,8.638,0,0,0-13.612,1.835h0a64.732,64.732,0,0,0,0,64h0a8.638,8.638,0,0,0,13.612,1.838l27.728-27.731A8.632,8.632,0,0,0,537.179,1067.741Zm-1.148,9.843L509.6,1106.557a6.735,6.735,0,0,1-10.674-.947,62.838,62.838,0,0,1-2.836-62.052,6.738,6.738,0,0,1,10.543-1.92l28.97,26.429a6.738,6.738,0,0,1,.437,9.517Z" transform="translate(-382.174 -1037.484)" fill="#fff"/>
      <path id="Path_3" data-name="Path 3" d="M535.242,1104.635a4.058,4.058,0,0,0-1.063-1.313,5.133,5.133,0,0,0-1.276-.757,7.66,7.66,0,0,0-2.481-.542,13.037,13.037,0,0,0-2.3.085c-.743.094-1.443.247-2.167.405a12.994,12.994,0,0,0-2.132.666,10.85,10.85,0,0,0-1.985,1.052,9.643,9.643,0,0,0-3.034,3.253c-.082.145-.159.284-.235.44l.539-10.745-3.936.391,2.6,10.24-.681-.133c-1.339-.267-2.674-.533-4.129-.737-.363-.051-.754-.085-1.16-.108a11.109,11.109,0,0,0-1.151,0,9.913,9.913,0,0,0-2.368.36,6.165,6.165,0,0,0-2.311,1.183,4.66,4.66,0,0,0-.922,1.046,4.2,4.2,0,0,0-.533,1.29,4.378,4.378,0,0,0,.21,2.569,5.293,5.293,0,0,0,1.33,1.957,5.581,5.581,0,0,0,1.909,1.168,5.417,5.417,0,0,0,2.1.318,5.6,5.6,0,0,1-3.08-2.3,4.138,4.138,0,0,1-.615-1.619,2.633,2.633,0,0,1,.187-1.474,2.129,2.129,0,0,1,.9-.939,4.082,4.082,0,0,1,1.418-.437,8.37,8.37,0,0,1,1.7-.017c.284.023.6.065.9.108a8.549,8.549,0,0,1,.868.184c1.237.284,2.552.686,3.888,1.027.4.111.805.213,1.214.315a12.874,12.874,0,0,0-.1,2.084,11.642,11.642,0,0,0,.221,2.064,14.77,14.77,0,0,1,.621-3.97c.7.167,1.418.323,2.124.468s1.4.261,2.107.363,1.435.19,2.169.241a17.212,17.212,0,0,0,4.6-.235,11.041,11.041,0,0,0,2.357-.78,8.458,8.458,0,0,0,2.172-1.435,6.171,6.171,0,0,0,1.65-2.368,4.537,4.537,0,0,0,.284-1.647A4.013,4.013,0,0,0,535.242,1104.635Zm-3.054,1.7a1.136,1.136,0,0,1-.122.352,2.8,2.8,0,0,1-.768.9,6.4,6.4,0,0,1-2.836,1.188,14.7,14.7,0,0,1-3.576.1,38.686,38.686,0,0,1-3.857-.462c-.349-.057-.7-.119-1.052-.184a8.368,8.368,0,0,1,2.836-2.339,10.555,10.555,0,0,1,3.559-1.027,13.409,13.409,0,0,1,1.906-.077,10.485,10.485,0,0,1,1.8.173,5.07,5.07,0,0,1,1.469.5,1.256,1.256,0,0,1,.627.644.567.567,0,0,1,.014.25Z" transform="translate(-394.382 -1080.252)" fill="#fff"/>
      <path id="Path_4" data-name="Path 4" d="M537.891,1168.727l-.655,1.134-.329.567-.162.284a.406.406,0,0,0-.045.054.466.466,0,0,0-.045.042.434.434,0,0,1-.437.051.32.32,0,0,1-.147-.13,1.68,1.68,0,0,1-.122-.332l-.817-2.487L528.586,1148l-3.686,1.418,8.391,19.2,1.046,2.4a2.739,2.739,0,0,0,.488.817,1.985,1.985,0,0,0,2.907,0c.057-.068.116-.136.164-.207s.088-.147.13-.224l.139-.3.284-.6.547-1.191,1.095-2.385,4.375-9.52-5.252,9.074Z" transform="translate(-409.056 -1116.661)" fill="#fff"/>
      <path id="Path_5" data-name="Path 5" d="M538.421,1173.737l.547-1.191,1.095-2.385,3.233-7.03-6.372,11.184a.618.618,0,0,1-1.109-.074l-8.309-20.449a2.05,2.05,0,0,0-2.626-1.134h0l8.391,19.2,1.046,2.4a2.743,2.743,0,0,0,.488.817,1.985,1.985,0,0,0,2.907,0c.057-.068.116-.136.164-.207s.088-.147.13-.224l.139-.3Z" transform="translate(-409.042 -1119.901)" fill="#fff"/>
      <path id="Path_6" data-name="Path 6" d="M538.287,1118.564a4.014,4.014,0,0,0-.431-1.736,4.058,4.058,0,0,0-1.063-1.313,5.127,5.127,0,0,0-1.276-.757,7.66,7.66,0,0,0-2.481-.542,13.048,13.048,0,0,0-2.3.085c-.743.094-1.443.247-2.167.406a12.986,12.986,0,0,0-2.133.666,10.83,10.83,0,0,0-1.985,1.052,9.744,9.744,0,0,0-2.578,2.524c.607.5,1.764-.42,1.764-.42,4.821-3.636,13.529-3.613,12.293,1.058-1.285,4.849-12.029,3.97-19.232,1.917s-9.849.99-8.13,4.361a5.172,5.172,0,0,0,4.007,3.014,5.575,5.575,0,0,1-2.96-2.269,4.137,4.137,0,0,1-.615-1.619,2.634,2.634,0,0,1,.187-1.475,2.129,2.129,0,0,1,.9-.939,4.085,4.085,0,0,1,1.418-.437,8.361,8.361,0,0,1,1.7-.017c.284.023.6.065.9.108a8.589,8.589,0,0,1,.868.184c1.236.284,2.552.686,3.888,1.026.4.111.805.213,1.214.315a12.883,12.883,0,0,0-.1,2.084,11.645,11.645,0,0,0,.221,2.064,14.766,14.766,0,0,1,.621-3.97c.7.167,1.418.323,2.124.468s1.4.261,2.107.363,1.435.19,2.169.241a17.217,17.217,0,0,0,4.6-.235,11.05,11.05,0,0,0,2.356-.78,8.465,8.465,0,0,0,2.172-1.435,6.175,6.175,0,0,0,1.65-2.368A4.538,4.538,0,0,0,538.287,1118.564Z" transform="translate(-396.996 -1092.445)" fill="#fff"/>
      <path id="Path_7" data-name="Path 7" d="M435.857,70.5,436.4,59.71,435.06,70.338Z" transform="translate(-311.679 -42.782)" fill="#fff"/>
      <path id="Path_8" data-name="Path 8" d="M555.715,1124.959a8.369,8.369,0,0,1,2.836-2.34c.184-.091.369-.178.567-.258l-.851-1.832c-.238.133-.471.284-.7.431a9.642,9.642,0,0,0-3.034,3.253c-.082.145-.159.284-.235.439v.043h.034c.437.085.9.176,1.387.261h0Z" transform="translate(-430.119 -1096.98)" fill="#fff" opacity="0.5"/>
      <path id="Path_9" data-name="Path 9" d="M550.175,1148a12.451,12.451,0,0,0-.1,1.449l.516.048s.026-.125.065-.3l.026-.114c.023-.094.048-.193.074-.284v-.017c.017-.071.037-.145.057-.218s.057-.207.079-.284a.468.468,0,0,1,.023-.085Z" transform="translate(-427.089 -1116.661)" fill="#fff" opacity="0.5"/>
      <path id="Path_10" data-name="Path 10" d="M550.666,1128.259v.017l.133-2.657-1.458-.028-.122.02.649,2.552.791.156Z" transform="translate(-426.48 -1100.605)" fill="#fff" opacity="0.5"/>
      <path id="Path_11" data-name="Path 11" d="M286.225,1211.51a1.458,1.458,0,0,0-.613-.13,1.514,1.514,0,0,0-1.112.468,3.421,3.421,0,0,0-.757,1.242,4.139,4.139,0,0,0-.323,1.545,1.587,1.587,0,0,0,.936,1.645,1.351,1.351,0,0,0,.482.1,1.758,1.758,0,0,0,1.242-.6,3.743,3.743,0,0,0,.885-1.418,3.373,3.373,0,0,0,.284-1.353A1.449,1.449,0,0,0,286.225,1211.51Z" transform="translate(-236.054 -1162.067)" fill="#fff"/>
      <path id="Path_12" data-name="Path 12" d="M297.974,1122.166a7.733,7.733,0,0,0-4.2.743A54.3,54.3,0,0,1,298,1113.99a1.313,1.313,0,0,0,.2-.613.851.851,0,0,0-.468-.757,2.245,2.245,0,0,0-1.134-.284,3.176,3.176,0,0,0-1.449.354,2.876,2.876,0,0,0-1.16,1.063,53.346,53.346,0,0,0-3.723,7.373,68.959,68.959,0,0,0-2.887,8.283c-.25.913-.465,1.775-.647,2.6-.176.284-.36.59-.567.868a9.519,9.519,0,0,1-1.869,1.985,2.9,2.9,0,0,1-1.628.723.831.831,0,0,1-.74-.386,2.034,2.034,0,0,1-.258-1.134,29.611,29.611,0,0,1,2.24-9.46,71.732,71.732,0,0,1,5.076-10.654,1.339,1.339,0,0,0,.193-.613.851.851,0,0,0-.451-.757,2.152,2.152,0,0,0-1.134-.284,3.176,3.176,0,0,0-1.449.354,3.118,3.118,0,0,0-1.194,1.063,46.96,46.96,0,0,0-3.448,6.171,54.777,54.777,0,0,0-2.887,7.5,28.292,28.292,0,0,0-.953,4.055,10.879,10.879,0,0,1-.82,1.418,8.3,8.3,0,0,1-1.789,1.968,2.844,2.844,0,0,1-1.662.692,1.134,1.134,0,0,1-.868-.386,1.949,1.949,0,0,1-.42-1.194,10.665,10.665,0,0,1,.337-3.029,26.035,26.035,0,0,1,1.08-3.706,5.371,5.371,0,0,0,.42-1.934,2.047,2.047,0,0,0-.388-1.339,1.234,1.234,0,0,0-1-.468,2.06,2.06,0,0,0-1.177.42,3.926,3.926,0,0,0-1.08,1.225,13.2,13.2,0,0,0-1.191,2.708,21.664,21.664,0,0,0-.927,3.854,11.483,11.483,0,0,1-.766,1.222,9.52,9.52,0,0,1-1.869,1.985,2.9,2.9,0,0,1-1.628.723.851.851,0,0,1-.743-.386,2.059,2.059,0,0,1-.255-1.134,29.646,29.646,0,0,1,2.237-9.46,72.026,72.026,0,0,1,5.079-10.654,1.338,1.338,0,0,0,.193-.613.851.851,0,0,0-.451-.757,2.152,2.152,0,0,0-1.134-.283,3.2,3.2,0,0,0-1.452.354,3.119,3.119,0,0,0-1.191,1.063,46.98,46.98,0,0,0-3.465,6.208,54.03,54.03,0,0,0-2.9,7.447,22.9,22.9,0,0,0-1.163,6.559q0,5.1,4.126,5.1a5.588,5.588,0,0,0,3-1.015,9.423,9.423,0,0,0,2.453-2.374,4.838,4.838,0,0,0,.885,1.923,3.571,3.571,0,0,0,2.949,1.4,5.832,5.832,0,0,0,3.046-.981,9.1,9.1,0,0,0,2.45-2.317,3.667,3.667,0,0,0,3.97,3.363,5.6,5.6,0,0,0,3-1.015,8.371,8.371,0,0,0,1.486-1.231,1.588,1.588,0,0,0,.567,1.151,2.442,2.442,0,0,0,1.6.516,3.12,3.12,0,0,0,1.611-.42,1.417,1.417,0,0,0,.774-1.1l.02-.153c1.1,1.089,2.861,1.874,5.592,2.249,4.418.6,8.428-2.935,8.919-7.591A8.291,8.291,0,0,0,297.974,1122.166Zm3.213,10.024a5.034,5.034,0,0,1-5.745,2.949,8.282,8.282,0,0,1-3.04-1.5,14.739,14.739,0,0,1,.732-3.913,4.9,4.9,0,0,1,5.745-2.949A3.9,3.9,0,0,1,301.186,1132.19Z" transform="translate(-218.323 -1091.082)" fill="#fff"/>
      <path id="Path_13" data-name="Path 13" d="M147.226,1109.033c-3.837-1.863-.162,3.84-5.039,8.507a9.59,9.59,0,0,1-2.935,2.371.241.241,0,0,1-.354-.051.964.964,0,0,1-.128-.567,14.047,14.047,0,0,1,.709-3.465c.471-1.6,8.283-21.254,9.012-23.165a3.291,3.291,0,0,0,.2-1.032,1.923,1.923,0,0,0-.6-1.466,2.011,2.011,0,0,0-2.626-.145,3.454,3.454,0,0,0-1.046,1.821c-.267.89-7.773,20.029-8.1,21.617-.045.147-.088.309-.125.49a22.59,22.59,0,0,1-3.358,3.556,20.415,20.415,0,0,0,.871-3.321,12.48,12.48,0,0,0,.162-1.838,7.8,7.8,0,0,0-1.032-4.157,4.407,4.407,0,0,0-2.8-2.1,2.559,2.559,0,0,0-.709-.1,4.545,4.545,0,0,0-2.87,1.194,11.241,11.241,0,0,0-2.612,3.287l.354-1.611a2.427,2.427,0,0,0,.1-.644,1.5,1.5,0,0,0-.284-.953.9.9,0,0,0-.74-.371,1.508,1.508,0,0,0-.967.406,3.172,3.172,0,0,0-.851,1.239,67.5,67.5,0,0,0-3.562,10.719,52.057,52.057,0,0,0-1.5,11.627,2.235,2.235,0,0,0,.771,1.855,2.742,2.742,0,0,0,1.838.692,1.985,1.985,0,0,0,1.387-.5,1.761,1.761,0,0,0,.516-1.435q-.034-.547-.034-1.676a62.271,62.271,0,0,1,1.355-11.927,7.432,7.432,0,0,0,1.917,3.176,4.92,4.92,0,0,0,3.014,1.466,3.182,3.182,0,0,0,1.483-.224,10.465,10.465,0,0,0,2.853-1.225,14.141,14.141,0,0,0,2.657-2.1,19.658,19.658,0,0,0,1.574-1.869q-.026.451-.026.9a7.693,7.693,0,0,0,.567,3.176,2.268,2.268,0,0,0,1.755,1.418,5.368,5.368,0,0,0,.678.065,7.717,7.717,0,0,0,4.205-1.483,14.444,14.444,0,0,0,4.143-4.56C148.193,1114.827,150.473,1110.536,147.226,1109.033Zm-18.594,4.12q-.179,1.081-.4,1.92a10.278,10.278,0,0,1-1.3,2.705,2.034,2.034,0,0,1-1.531,1.063,1.418,1.418,0,0,1-1.1-.644,3.864,3.864,0,0,1-.675-1.29,3.971,3.971,0,0,1-.284-1.48,20.042,20.042,0,0,1,2.192-4.432q1.225-1.792,2.269-1.789a.922.922,0,0,1,.42.1c.408.173.613.805.613,1.9A12.027,12.027,0,0,1,128.632,1113.154Z" transform="translate(-116.39 -1074.821)" fill="#fff"/>
      <path id="Path_14" data-name="Path 14" d="M203.643,1093.96a22.92,22.92,0,0,1-6.661.04,54.686,54.686,0,0,1-7.847-1.511,47.061,47.061,0,0,1-6.7-2.269,3.134,3.134,0,0,1-1.259-.981,3.2,3.2,0,0,1-.61-1.364,2.132,2.132,0,0,1,.065-1.157.851.851,0,0,1,.664-.567,1.316,1.316,0,0,1,.638.079,71.889,71.889,0,0,0,11.391,3.074,29.762,29.762,0,0,0,9.71.5,2.043,2.043,0,0,0,1.063-.457.831.831,0,0,0,.247-.8,2.9,2.9,0,0,0-1.007-1.472,9.362,9.362,0,0,0-2.3-1.478,11.964,11.964,0,0,0-3.043-.967c-.678-.116-1.052-.363-1.134-.746a.618.618,0,0,1,.19-.567,1.171,1.171,0,0,1,.658-.335,1.388,1.388,0,0,1,.323-.026,13.451,13.451,0,0,1,4.886,1,9.991,9.991,0,0,1,3.434,2.288,5.577,5.577,0,0,1,1.54,2.765Q208.654,1093.041,203.643,1093.96Z" transform="translate(-162.335 -1070.062)" fill="#fff"/>
      <path id="Path_15" data-name="Path 15" d="M239.239,1143.3a1.372,1.372,0,0,0,.485.1,1.758,1.758,0,0,0,1.239-.6,3.746,3.746,0,0,0,.888-1.418,3.4,3.4,0,0,0,.284-1.353,1.446,1.446,0,0,0-1.032-1.514,1.5,1.5,0,0,0-.61-.13,1.522,1.522,0,0,0-1.114.468,3.42,3.42,0,0,0-.757,1.242,4.132,4.132,0,0,0-.32,1.545A1.6,1.6,0,0,0,239.239,1143.3Z" transform="translate(-203.729 -1109.776)" fill="#fff"/>
      <path id="Path_16" data-name="Path 16" d="M226.894,1138.037a1.349,1.349,0,0,0,.482.1,1.759,1.759,0,0,0,1.242-.6,3.753,3.753,0,0,0,.885-1.4,3.386,3.386,0,0,0,.284-1.356,1.452,1.452,0,0,0-1.032-1.514,1.5,1.5,0,0,0-.613-.128,1.523,1.523,0,0,0-1.112.465,3.419,3.419,0,0,0-.757,1.242,4.154,4.154,0,0,0-.323,1.548A1.623,1.623,0,0,0,226.894,1138.037Z" transform="translate(-194.881 -1106.014)" fill="#fff"/>
    </g>
  </g>
</svg>
