<svg xmlns="http://www.w3.org/2000/svg" xmlns:xlink="http://www.w3.org/1999/xlink" width="44" height="44" viewBox="0 0 44 44">
  <defs>
    <clipPath id="clip-path">
      <rect id="Rectangle_17" data-name="Rectangle 17" width="44" height="44" transform="translate(1080.066 1682.847)" fill="#fff"/>
    </clipPath>
  </defs>
  <g id="Mask_Group_7" data-name="Mask Group 7" transform="translate(-1080.066 -1682.847)" clip-path="url(#clip-path)">
    <g id="map_1_" data-name="map (1)" transform="translate(1080.049 1685.489)">
      <path id="Path_7422" data-name="Path 7422" d="M18.529,46.973l10.743,4.762V32.754l-9.253-4.762Z" transform="translate(-7.136 -13.329)" fill="#44c868"/>
      <path id="Path_7423" data-name="Path 7423" d="M19.326,42.523l9.945,14.923L18.529,52.684Z" transform="translate(-7.136 -19.04)" fill="#7ee5f2"/>
      <path id="Path_7424" data-name="Path 7424" d="M11.8,46.973,1.057,51.735,4.535,32.8l8.754-4.811Z" transform="translate(-0.407 -13.329)" fill="#4ce166"/>
      <path id="Path_7425" data-name="Path 7425" d="M2.865,47.6,12.6,42.523l-.8,10.161L1.057,57.446Z" transform="translate(-0.407 -19.04)" fill="#a8eefc"/>
      <path id="Path_7426" data-name="Path 7426" d="M52.54,46.973l10.743,4.762L59.8,32.8l-8.754-4.811Z" transform="translate(-19.662 -13.329)" fill="#44c868"/>
      <path id="Path_7427" data-name="Path 7427" d="M51.768,36.256l10.72,12.293-2.407-13.1-1.327-.729Z" transform="translate(-19.938 -15.972)" fill="#7ee5f2"/>
      <path id="Path_7428" data-name="Path 7428" d="M46.743,46.973,36,51.735V32.754l9.253-4.762Z" transform="translate(-13.866 -13.329)" fill="#4ce166"/>
      <path id="Path_7429" data-name="Path 7429" d="M4,45.264l9.731-5.078.283-3.609L4.7,41.42Z" transform="translate(-1.54 -16.703)" fill="#ffdb56"/>
      <g id="Group_10228" data-name="Group 10228" transform="translate(12.19 16.441)">
        <path id="Path_7430" data-name="Path 7430" d="M29.773,37.942l-9.665-1.365-.283,3.609,9.945,14.923V49.683l-5.935-9.233,5.937.7Z" transform="translate(-19.825 -33.144)" fill="#ffbb24"/>
        <path id="Path_7431" data-name="Path 7431" d="M51.613,34.764,58.6,33.225l-4.192-2.3-3.04.7Z" transform="translate(-31.973 -30.921)" fill="#ffbb24"/>
      </g>
      <path id="Path_7432" data-name="Path 7432" d="M46.05,39.719l-.377-4.805h0l-.223-2.836L36,36.174v3.209l6.17-2.651Z" transform="translate(-13.867 -14.935)" fill="#ffdb56"/>
      <path id="Path_7433" data-name="Path 7433" d="M52.121,41.753,63.559,55.374l-1.071-5.829L51.768,37.252Z" transform="translate(-19.938 -16.969)" fill="#ffbb24"/>
      <path id="Path_7434" data-name="Path 7434" d="M30.782,4.892a8.386,8.386,0,0,0-8.44,8.332c0,7.007,8.44,13.454,8.44,13.454s8.44-6.447,8.44-13.454A8.386,8.386,0,0,0,30.782,4.892Zm0,11.655a3.323,3.323,0,1,1,3.366-3.323A3.345,3.345,0,0,1,30.782,16.546Z" transform="translate(-8.605 -4.25)" fill="#ff4a4a"/>
      <path id="Path_7435" data-name="Path 7435" d="M35.336,4.892a8.622,8.622,0,0,0-1.17.08,8.369,8.369,0,0,1,7.27,8.252c0,5.368-4.953,10.407-7.27,12.471.708.63,1.17.983,1.17.983s8.44-6.447,8.44-13.454A8.386,8.386,0,0,0,35.336,4.892Z" transform="translate(-13.159 -4.25)" fill="#e7343f"/>
      <path id="Path_7436" data-name="Path 7436" d="M36,58.168l3.7,3.785L36,63.594Z" transform="translate(-13.866 -25.189)" fill="#ffdb56"/>
      <path id="Path_7437" data-name="Path 7437" d="M44.133,42.634l.01-.012a.64.64,0,0,0,.052-.082c0-.008.007-.016.011-.025a.649.649,0,0,0,.027-.064c0-.011.007-.022.01-.033s.011-.04.015-.061,0-.024.006-.036a.649.649,0,0,0,0-.066c0-.01,0-.021,0-.032a.627.627,0,0,0-.01-.1L41.666,28.009a.649.649,0,0,0-.755-.517.642.642,0,0,0-.523.746l1.1,5.969-8.455-9.695,5.686-1.253.842.463.366,1.99a.649.649,0,0,0,.755.517.642.642,0,0,0,.523-.746l-.421-2.289a.642.642,0,0,0-.323-.446h0L31.7,17.937h0a.648.648,0,0,0-.077-.036l-.025-.008c-.018-.006-.037-.012-.055-.017l-.032-.006-.05-.008-.034,0-.049,0-.035,0-.048,0-.035.006-.047.011-.035.01-.045.017-.034.015-.015.006-1.484.764a12.352,12.352,0,0,0,1.662-5.885,9.09,9.09,0,0,0-18.178,0,12.391,12.391,0,0,0,1.694,5.944l-1.6-.823-.015-.007-.033-.015-.045-.017-.034-.01-.047-.011-.035-.006-.048,0-.036,0-.048,0-.036,0-.048.008-.034.007c-.018,0-.035.01-.052.016l-.027.009a.658.658,0,0,0-.077.036h0l-8.754,4.81a.641.641,0,0,0-.323.446h0L1.023,36.615h0a.642.642,0,0,0,.523.746.649.649,0,0,0,.755-.517l.74-4.026,8.41-4.389-.676,8.621L1.509,41.157l.326-1.775a.642.642,0,0,0-.523-.746.649.649,0,0,0-.755.517L.01,42.127a.637.637,0,0,0,.239.62.657.657,0,0,0,.667.08l10.477-4.644,10.472,4.642h0l0,0,.018.007.029.011.029.01.019.005.024.006.041.008.019,0,.013,0a.647.647,0,0,0,.065,0h.012a.657.657,0,0,0,.079-.006h.01l.015,0c.02,0,.041-.008.061-.013l.017,0h0l.005,0a.649.649,0,0,0,.075-.027l10.476-4.644h0l10.477,4.644.031.012.031.012.041.011.026.007.05.008.018,0a.65.65,0,0,0,.069,0h0a.665.665,0,0,0,.095-.008l.022,0a.642.642,0,0,0,.092-.023l.006,0a.607.607,0,0,0,.06-.024l.016-.009c.016-.008.032-.017.048-.027s.031-.019.046-.03l.016-.01c.011-.009.021-.019.032-.029l.026-.023A.626.626,0,0,0,44.133,42.634Zm-18.145-2.8-3.2-3.275V28.7l5.427-2.332,3.344,2.578.638,8.128Zm-3.2,1.42V38.4l1.942,1.986Zm-2.549-15.8c.541.5.979.863,1.249,1.083V27.56l-5.208-.616a.654.654,0,0,0-.627.295.635.635,0,0,0,0,.686L21.485,37v3.1l-8.631-12.95L12.96,25.8l.107-1.36Zm4.908-.983,5.862-2.542.415,5.29-2.714-2.092a.657.657,0,0,0-.659-.083L22.787,27.3v-.7A30.4,30.4,0,0,0,25.144,24.471Zm7.494,1.645-.007-.1L41.942,36.7l.6,3.25L32.814,28.367ZM32.13,19.64l.709.389-.666.154ZM17.483,28.379l4,.473v5.754Zm-4.792.858,7.675,11.517-8.291-3.675Zm20.3,1.347,8.347,9.941L33.5,37.05Zm4.02-8.263-4.589,1.011-.146-1.855,2.253-.52,2.482,1.364Zm-6.192-2.8.083,1.058-3.662,1.588q.545-.667,1.017-1.328Zm-8.64-14.4a7.749,7.749,0,0,1,7.79,7.69c0,5.754-6.149,11.259-7.79,12.625-1.641-1.366-7.79-6.871-7.79-12.625A7.749,7.749,0,0,1,22.177,5.118ZM17.459,22.575c.416.491.831.947,1.23,1.364l-5.522-.78.286-3.643L16.147,20.9Q16.745,21.732,17.459,22.575ZM12.14,19.64l-.187,2.38-.1,1.287L4.042,27.37l.67-3.649Zm-8.8,11.573.4-2.183.01-.056,7.987-4.155-.165,2.1Z" transform="translate(0 -3.835)"/>
      <path id="Path_7438" data-name="Path 7438" d="M37.569,16.051a4,4,0,0,0-4.016-3.965.642.642,0,1,0,0,1.283,2.682,2.682,0,1,1-2.716,2.682,2.649,2.649,0,0,1,.779-1.879.635.635,0,0,0-.008-.907.656.656,0,0,0-.919.008,3.916,3.916,0,0,0-1.151,2.778,4.016,4.016,0,0,0,8.032,0Z" transform="translate(-11.376 -7.078)"/>
    </g>
  </g>
</svg>
