<svg xmlns="http://www.w3.org/2000/svg" xmlns:xlink="http://www.w3.org/1999/xlink" width="24" height="24" viewBox="0 0 24 24">
  <defs>
    <clipPath id="clip-path">
      <rect id="Rectangle_6" data-name="Rectangle 6" width="24" height="24" transform="translate(732 3070)" fill="#fff"/>
    </clipPath>
  </defs>
  <g id="Mask_Group_3" data-name="Mask Group 3" transform="translate(-732 -3070)" clip-path="url(#clip-path)">
    <g id="twitter" transform="translate(732 3072.25)">
      <g id="Group_1" data-name="Group 1">
        <path id="Path_4" data-name="Path 4" d="M24,5.309a10.258,10.258,0,0,1-2.835.777,4.893,4.893,0,0,0,2.164-2.72,9.833,9.833,0,0,1-3.12,1.191A4.92,4.92,0,0,0,11.7,7.922a5.066,5.066,0,0,0,.114,1.122A13.927,13.927,0,0,1,1.671,3.9a4.922,4.922,0,0,0,1.512,6.576A4.859,4.859,0,0,1,.96,9.867v.054A4.943,4.943,0,0,0,4.9,14.755a4.911,4.911,0,0,1-1.29.162,4.35,4.35,0,0,1-.932-.084,4.967,4.967,0,0,0,4.6,3.427,9.886,9.886,0,0,1-6.1,2.1A9.216,9.216,0,0,1,0,20.292,13.852,13.852,0,0,0,7.548,22.5a13.907,13.907,0,0,0,14-14c0-.217-.007-.427-.018-.636A9.816,9.816,0,0,0,24,5.309Z" transform="translate(0 -3)" fill="#fff"/>
      </g>
    </g>
  </g>
</svg>
